<svg width="24" height="24" viewBox="0 0 24 24" fill="none" xmlns="http://www.w3.org/2000/svg">
<path d="M17.25 9.375C17.25 8.96079 16.9142 8.625 16.5 8.625C16.0858 8.625 15.75 8.96079 15.75 9.375H17.25ZM16.5 20.625L17.25 20.6272V20.625H16.5ZM14.625 22.5V23.25L14.6272 23.25L14.625 22.5ZM6.375 22.5L6.37276 23.25H6.375V22.5ZM4.5 20.625H3.75L3.75 20.6272L4.5 20.625ZM5.25 10.5C5.25 10.0858 4.91421 9.75 4.5 9.75C4.08579 9.75 3.75 10.0858 3.75 10.5H5.25ZM16.5 9.75C16.0858 9.75 15.75 10.0858 15.75 10.5C15.75 10.9142 16.0858 11.25 16.5 11.25V9.75ZM18.375 10.5L18.3771 9.75H18.375V10.5ZM21 13.125H21.75L21.75 13.1229L21 13.125ZM21 16.875L21.75 16.8771V16.875H21ZM18.375 19.5V20.25L18.3771 20.25L18.375 19.5ZM16.5 18.75C16.0858 18.75 15.75 19.0858 15.75 19.5C15.75 19.9142 16.0858 20.25 16.5 20.25V18.75ZM11.25 12C11.25 11.5858 10.9142 11.25 10.5 11.25C10.0858 11.25 9.75 11.5858 9.75 12H11.25ZM9.75 19.5C9.75 19.9142 10.0858 20.25 10.5 20.25C10.9142 20.25 11.25 19.9142 11.25 19.5H9.75ZM14.25 12C14.25 11.5858 13.9142 11.25 13.5 11.25C13.0858 11.25 12.75 11.5858 12.75 12H14.25ZM12.75 19.5C12.75 19.9142 13.0858 20.25 13.5 20.25C13.9142 20.25 14.25 19.9142 14.25 19.5H12.75ZM8.25 12C8.25 11.5858 7.91421 11.25 7.5 11.25C7.08579 11.25 6.75 11.5858 6.75 12H8.25ZM6.75 19.5C6.75 19.9142 7.08579 20.25 7.5 20.25C7.91421 20.25 8.25 19.9142 8.25 19.5H6.75ZM15 4.5C14.5858 4.5 14.25 4.83579 14.25 5.25C14.25 5.66421 14.5858 6 15 6V4.5ZM17.25 7.5H18H17.25ZM13.2188 9L13.7491 8.46967C13.6084 8.32902 13.4177 8.25 13.2188 8.25V9ZM7.5 9V8.25C7.18462 8.25 6.90293 8.4473 6.79516 8.74369L7.5 9ZM5.25 10.5V11.25V10.5ZM5.25 6L5.2815 5.25066C5.271 5.25022 5.2605 5.25 5.25 5.25V6ZM6.03024 7.03032C6.36628 7.27251 6.83502 7.19642 7.0772 6.86038C7.31938 6.52435 7.2433 6.05561 6.90726 5.81343L6.03024 7.03032ZM3.77807 6.74044C4.07232 7.03197 4.54719 7.02977 4.83872 6.73552C5.13025 6.44127 5.12805 5.96641 4.8338 5.67487L3.77807 6.74044ZM7.14 3.77016L7.74675 3.3293L7.74576 3.32794L7.14 3.77016ZM6.75 4.5C6.75 4.91421 7.08579 5.25 7.5 5.25C7.91421 5.25 8.25 4.91421 8.25 4.5H6.75ZM6.27202 2.53864C5.99884 2.85 6.02978 3.32386 6.34114 3.59704C6.6525 3.87023 7.12636 3.83928 7.39954 3.52792L6.27202 2.53864ZM14.5312 5.96297H13.7812V5.96341L14.5312 5.96297ZM13.7162 6.65687C13.6388 7.0638 13.906 7.45637 14.313 7.53369C14.7199 7.61102 15.1125 7.34382 15.1898 6.93688L13.7162 6.65687ZM15.75 9.375V20.625H17.25V9.375H15.75ZM15.75 20.6228C15.7491 20.9214 15.6301 21.2076 15.4189 21.4189L16.4795 22.4795C16.9709 21.9881 17.2479 21.3222 17.25 20.6272L15.75 20.6228ZM15.4189 21.4189C15.2076 21.6301 14.9214 21.7491 14.6228 21.75L14.6272 23.25C15.3222 23.2479 15.9881 22.9709 16.4795 22.4795L15.4189 21.4189ZM14.625 21.75H6.375V23.25H14.625V21.75ZM6.37724 21.75C6.07855 21.7491 5.79235 21.6301 5.58114 21.4189L4.52048 22.4795C5.0119 22.9709 5.6778 23.2479 6.37276 23.25L6.37724 21.75ZM5.58114 21.4189C5.36994 21.2076 5.25089 20.9214 5.25 20.6228L3.75 20.6272C3.75208 21.3222 4.02907 21.9881 4.52048 22.4795L5.58114 21.4189ZM5.25 20.625V10.5H3.75V20.625H5.25ZM16.5 11.25H18.375V9.75H16.5V11.25ZM18.3729 11.25C18.8703 11.2514 19.3469 11.4496 19.6986 11.8014L20.7593 10.7407C20.1273 10.1087 19.2709 9.75255 18.3771 9.75L18.3729 11.25ZM19.6986 11.8014C20.0504 12.1531 20.2486 12.6297 20.25 13.1271L21.75 13.1229C21.7475 12.2291 21.3913 11.3727 20.7593 10.7407L19.6986 11.8014ZM20.25 13.125V16.875H21.75V13.125H20.25ZM20.25 16.8729C20.2486 17.3703 20.0504 17.8469 19.6986 18.1986L20.7593 19.2593C21.3913 18.6273 21.7475 17.7709 21.75 16.8771L20.25 16.8729ZM19.6986 18.1986C19.3469 18.5504 18.8703 18.7486 18.3729 18.75L18.3771 20.25C19.2709 20.2475 20.1273 19.8913 20.7593 19.2593L19.6986 18.1986ZM18.375 18.75H16.5V20.25H18.375V18.75ZM9.75 12V19.5H11.25V12H9.75ZM12.75 12V19.5H14.25V12H12.75ZM6.75 12V19.5H8.25V12H6.75ZM15 6C15.3978 6 15.7794 6.15804 16.0607 6.43934L17.1213 5.37868C16.5587 4.81607 15.7956 4.5 15 4.5V6ZM16.0607 6.43934C16.342 6.72064 16.5 7.10218 16.5 7.5H18C18 6.70435 17.6839 5.94129 17.1213 5.37868L16.0607 6.43934ZM16.5 7.5C16.5 7.89783 16.342 8.27936 16.0607 8.56066L17.1213 9.62132C17.6839 9.05871 18 8.29565 18 7.5H16.5ZM16.0607 8.56066C15.7794 8.84196 15.3978 9 15 9V10.5C15.7956 10.5 16.5587 10.1839 17.1213 9.62132L16.0607 8.56066ZM15 9C14.817 9 14.5757 8.94663 14.3262 8.83905C14.0769 8.73158 13.8721 8.59267 13.7491 8.46967L12.6884 9.53033C12.9728 9.81467 13.348 10.0508 13.7323 10.2165C14.1163 10.382 14.5619 10.5 15 10.5V9ZM13.2188 8.25H7.5V9.75H13.2188V8.25ZM6.79516 8.74369C6.54846 9.42211 5.9836 9.75 5.25 9.75V11.25C6.48515 11.25 7.70154 10.6404 8.20484 9.25631L6.79516 8.74369ZM5.25 9.75C4.85217 9.75 4.47064 9.59196 4.18934 9.31066L3.12868 10.3713C3.69129 10.9339 4.45435 11.25 5.25 11.25V9.75ZM4.18934 9.31066C3.90804 9.02936 3.75 8.64782 3.75 8.25H2.25C2.25 9.04565 2.56607 9.80871 3.12868 10.3713L4.18934 9.31066ZM3.75 8.25C3.75 7.85218 3.90804 7.47064 4.18934 7.18934L3.12868 6.12868C2.56607 6.69129 2.25 7.45435 2.25 8.25H3.75ZM4.18934 7.18934C4.47064 6.90804 4.85217 6.75 5.25 6.75V5.25C4.45435 5.25 3.69129 5.56607 3.12868 6.12868L4.18934 7.18934ZM5.2185 6.74934C5.51074 6.76162 5.79295 6.85931 6.03024 7.03032L6.90726 5.81343C6.43202 5.47092 5.86678 5.27526 5.2815 5.25066L5.2185 6.74934ZM4.8338 5.67487C4.72349 5.56558 4.637 5.43463 4.57978 5.29027L3.18534 5.84303C3.31886 6.17987 3.52068 6.48542 3.77807 6.74044L4.8338 5.67487ZM4.57978 5.29027C4.52255 5.14591 4.49583 4.99127 4.5013 4.83608L3.00223 4.78325C2.98947 5.14537 3.05181 5.5062 3.18534 5.84303L4.57978 5.29027ZM4.5013 4.83608C4.50677 4.68089 4.54431 4.52851 4.61155 4.38854L3.25948 3.73899C3.10258 4.06559 3.01499 4.42114 3.00223 4.78325L4.5013 4.83608ZM4.61155 4.38854C4.6788 4.24857 4.77429 4.12403 4.89202 4.02277L3.91392 2.88554C3.63921 3.1218 3.41639 3.41239 3.25948 3.73899L4.61155 4.38854ZM4.89202 4.02277C5.00976 3.92151 5.14718 3.84573 5.29563 3.80018L4.85567 2.36615C4.50927 2.47243 4.18862 2.64927 3.91392 2.88554L4.89202 4.02277ZM5.29563 3.80018C5.44409 3.75463 5.60037 3.74031 5.75463 3.75812L5.92667 2.26802C5.56673 2.22646 5.20207 2.25988 4.85567 2.36615L5.29563 3.80018ZM5.75463 3.75812C5.90889 3.77593 6.0578 3.82549 6.19197 3.90367L6.94713 2.60762C6.63406 2.4252 6.28662 2.30958 5.92667 2.26802L5.75463 3.75812ZM6.19197 3.90367C6.32615 3.98184 6.44268 4.08695 6.53424 4.21237L7.74576 3.32794C7.53212 3.03529 7.2602 2.79003 6.94713 2.60762L6.19197 3.90367ZM7.14 3.77016C6.53325 4.21101 6.5332 4.21095 6.53316 4.21088C6.53314 4.21087 6.5331 4.2108 6.53307 4.21077C6.53302 4.21069 6.53297 4.21063 6.53293 4.21057C6.53284 4.21045 6.53277 4.21035 6.53273 4.21029C6.53263 4.21016 6.53263 4.21015 6.53269 4.21025C6.53283 4.21044 6.53329 4.21107 6.53404 4.21212C6.53554 4.21422 6.5382 4.21796 6.54186 4.22317C6.54921 4.23362 6.56042 4.24977 6.57418 4.27019C6.60217 4.31175 6.63835 4.36755 6.67337 4.42715C6.70977 4.48909 6.73726 4.54223 6.75351 4.58045C6.77848 4.63922 6.75 4.5987 6.75 4.5H8.25C8.25 4.28411 8.17652 4.09377 8.134 3.99372C8.08274 3.87313 8.02024 3.75845 7.96663 3.66723C7.91165 3.57366 7.85783 3.49094 7.81832 3.43228C7.79833 3.40259 7.78141 3.37819 7.76907 3.36064C7.76289 3.35184 7.75782 3.34471 7.75405 3.33944C7.75216 3.3368 7.75059 3.33462 7.74937 3.33292C7.74876 3.33207 7.74823 3.33135 7.7478 3.33074C7.74758 3.33044 7.74738 3.33017 7.74721 3.32993C7.74712 3.32981 7.74704 3.3297 7.74696 3.32959C7.74692 3.32954 7.74687 3.32947 7.74685 3.32944C7.7468 3.32937 7.74675 3.3293 7.14 3.77016ZM7.39954 3.52792C8.09028 2.74067 9.03411 2.25 10.125 2.25V0.75C8.55058 0.75 7.21159 1.46777 6.27202 2.53864L7.39954 3.52792ZM10.125 2.25C12.1536 2.25 13.7812 3.90973 13.7812 5.96297H15.2812C15.2812 3.10652 13.007 0.75 10.125 0.75V2.25ZM13.7812 5.96341C13.7814 6.19609 13.7596 6.42827 13.7162 6.65687L15.1898 6.93688C15.2508 6.6157 15.2814 6.28947 15.2812 5.96253L13.7812 5.96341Z" fill="#E93E71"/>
</svg>
