<svg width="64" height="74" viewBox="0 0 64 74" fill="none" xmlns="http://www.w3.org/2000/svg">
<g filter="url(#filter0_dd_369_11975)">
<path d="M55.5 32C55.5 35.1788 54.0546 38.8664 51.8195 42.6501C49.5914 46.4219 46.6133 50.2316 43.624 53.6409C40.6365 57.0483 37.6474 60.0449 35.4044 62.1901C34.2832 63.2625 33.3492 64.1214 32.696 64.7118C32.4058 64.9741 32.1711 65.1833 32 65.3347C31.8289 65.1833 31.5942 64.9741 31.304 64.7118C30.6508 64.1214 29.7168 63.2625 28.5956 62.1901C26.3526 60.0449 23.3635 57.0483 20.376 53.6409C17.3867 50.2316 14.4086 46.4219 12.1805 42.6501C9.94536 38.8664 8.5 35.1788 8.5 32C8.5 19.0213 19.0213 8.5 32 8.5C44.9787 8.5 55.5 19.0213 55.5 32Z" fill="url(#paint0_linear_369_11975)" fill-opacity="0.75" stroke="#E93E71"/>
<path d="M37.25 27.375C37.25 26.9608 36.9142 26.625 36.5 26.625C36.0858 26.625 35.75 26.9608 35.75 27.375H37.25ZM36.5 38.625L37.25 38.6272V38.625H36.5ZM34.625 40.5V41.25L34.6272 41.25L34.625 40.5ZM26.375 40.5L26.3728 41.25H26.375V40.5ZM24.5 38.625H23.75L23.75 38.6272L24.5 38.625ZM25.25 28.5C25.25 28.0858 24.9142 27.75 24.5 27.75C24.0858 27.75 23.75 28.0858 23.75 28.5H25.25ZM36.5 27.75C36.0858 27.75 35.75 28.0858 35.75 28.5C35.75 28.9142 36.0858 29.25 36.5 29.25V27.75ZM38.375 28.5L38.3771 27.75H38.375V28.5ZM41 31.125H41.75L41.75 31.1229L41 31.125ZM41 34.875L41.75 34.8771V34.875H41ZM38.375 37.5V38.25L38.3771 38.25L38.375 37.5ZM36.5 36.75C36.0858 36.75 35.75 37.0858 35.75 37.5C35.75 37.9142 36.0858 38.25 36.5 38.25V36.75ZM31.25 30C31.25 29.5858 30.9142 29.25 30.5 29.25C30.0858 29.25 29.75 29.5858 29.75 30H31.25ZM29.75 37.5C29.75 37.9142 30.0858 38.25 30.5 38.25C30.9142 38.25 31.25 37.9142 31.25 37.5H29.75ZM34.25 30C34.25 29.5858 33.9142 29.25 33.5 29.25C33.0858 29.25 32.75 29.5858 32.75 30H34.25ZM32.75 37.5C32.75 37.9142 33.0858 38.25 33.5 38.25C33.9142 38.25 34.25 37.9142 34.25 37.5H32.75ZM28.25 30C28.25 29.5858 27.9142 29.25 27.5 29.25C27.0858 29.25 26.75 29.5858 26.75 30H28.25ZM26.75 37.5C26.75 37.9142 27.0858 38.25 27.5 38.25C27.9142 38.25 28.25 37.9142 28.25 37.5H26.75ZM35 22.5C34.5858 22.5 34.25 22.8358 34.25 23.25C34.25 23.6642 34.5858 24 35 24V22.5ZM37.25 25.5H38H37.25ZM33.2188 27L33.7491 26.4697C33.6084 26.329 33.4177 26.25 33.2188 26.25V27ZM27.5 27V26.25C27.1846 26.25 26.9029 26.4473 26.7952 26.7437L27.5 27ZM25.25 28.5V29.25V28.5ZM25.25 24L25.2815 23.2507C25.271 23.2502 25.2605 23.25 25.25 23.25V24ZM26.0302 25.0303C26.3663 25.2725 26.835 25.1964 27.0772 24.8604C27.3194 24.5243 27.2433 24.0556 26.9073 23.8134L26.0302 25.0303ZM23.7781 24.7404C24.0723 25.032 24.5472 25.0298 24.8387 24.7355C25.1303 24.4413 25.1281 23.9664 24.8338 23.6749L23.7781 24.7404ZM27.14 21.7702L27.7468 21.3293L27.7458 21.3279L27.14 21.7702ZM26.75 22.5C26.75 22.9142 27.0858 23.25 27.5 23.25C27.9142 23.25 28.25 22.9142 28.25 22.5H26.75ZM26.272 20.5386C25.9988 20.85 26.0298 21.3239 26.3411 21.597C26.6525 21.8702 27.1264 21.8393 27.3995 21.5279L26.272 20.5386ZM34.5312 23.963H33.7812V23.9634L34.5312 23.963ZM33.7162 24.6569C33.6388 25.0638 33.906 25.4564 34.313 25.5337C34.7199 25.611 35.1125 25.3438 35.1898 24.9369L33.7162 24.6569ZM35.75 27.375V38.625H37.25V27.375H35.75ZM35.75 38.6228C35.7491 38.9214 35.6301 39.2076 35.4189 39.4189L36.4795 40.4795C36.9709 39.9881 37.2479 39.3222 37.25 38.6272L35.75 38.6228ZM35.4189 39.4189C35.2076 39.6301 34.9214 39.7491 34.6228 39.75L34.6272 41.25C35.3222 41.2479 35.9881 40.9709 36.4795 40.4795L35.4189 39.4189ZM34.625 39.75H26.375V41.25H34.625V39.75ZM26.3772 39.75C26.0786 39.7491 25.7924 39.6301 25.5811 39.4189L24.5205 40.4795C25.0119 40.9709 25.6778 41.2479 26.3728 41.25L26.3772 39.75ZM25.5811 39.4189C25.3699 39.2076 25.2509 38.9214 25.25 38.6228L23.75 38.6272C23.7521 39.3222 24.0291 39.9881 24.5205 40.4795L25.5811 39.4189ZM25.25 38.625V28.5H23.75V38.625H25.25ZM36.5 29.25H38.375V27.75H36.5V29.25ZM38.3729 29.25C38.8703 29.2514 39.3469 29.4496 39.6986 29.8014L40.7593 28.7407C40.1273 28.1087 39.2709 27.7525 38.3771 27.75L38.3729 29.25ZM39.6986 29.8014C40.0504 30.1531 40.2486 30.6297 40.25 31.1271L41.75 31.1229C41.7475 30.2291 41.3913 29.3727 40.7593 28.7407L39.6986 29.8014ZM40.25 31.125V34.875H41.75V31.125H40.25ZM40.25 34.8729C40.2486 35.3703 40.0504 35.8469 39.6986 36.1986L40.7593 37.2593C41.3913 36.6273 41.7475 35.7709 41.75 34.8771L40.25 34.8729ZM39.6986 36.1986C39.3469 36.5504 38.8703 36.7486 38.3729 36.75L38.3771 38.25C39.2709 38.2475 40.1273 37.8913 40.7593 37.2593L39.6986 36.1986ZM38.375 36.75H36.5V38.25H38.375V36.75ZM29.75 30V37.5H31.25V30H29.75ZM32.75 30V37.5H34.25V30H32.75ZM26.75 30V37.5H28.25V30H26.75ZM35 24C35.3978 24 35.7794 24.158 36.0607 24.4393L37.1213 23.3787C36.5587 22.8161 35.7956 22.5 35 22.5V24ZM36.0607 24.4393C36.342 24.7206 36.5 25.1022 36.5 25.5H38C38 24.7044 37.6839 23.9413 37.1213 23.3787L36.0607 24.4393ZM36.5 25.5C36.5 25.8978 36.342 26.2794 36.0607 26.5607L37.1213 27.6213C37.6839 27.0587 38 26.2956 38 25.5H36.5ZM36.0607 26.5607C35.7794 26.842 35.3978 27 35 27V28.5C35.7956 28.5 36.5587 28.1839 37.1213 27.6213L36.0607 26.5607ZM35 27C34.817 27 34.5757 26.9466 34.3262 26.839C34.0769 26.7316 33.8721 26.5927 33.7491 26.4697L32.6884 27.5303C32.9728 27.8147 33.348 28.0508 33.7323 28.2165C34.1163 28.382 34.5619 28.5 35 28.5V27ZM33.2188 26.25H27.5V27.75H33.2188V26.25ZM26.7952 26.7437C26.5485 27.4221 25.9836 27.75 25.25 27.75V29.25C26.4852 29.25 27.7015 28.6404 28.2048 27.2563L26.7952 26.7437ZM25.25 27.75C24.8522 27.75 24.4706 27.592 24.1893 27.3107L23.1287 28.3713C23.6913 28.9339 24.4544 29.25 25.25 29.25V27.75ZM24.1893 27.3107C23.908 27.0294 23.75 26.6478 23.75 26.25H22.25C22.25 27.0456 22.5661 27.8087 23.1287 28.3713L24.1893 27.3107ZM23.75 26.25C23.75 25.8522 23.908 25.4706 24.1893 25.1893L23.1287 24.1287C22.5661 24.6913 22.25 25.4544 22.25 26.25H23.75ZM24.1893 25.1893C24.4706 24.908 24.8522 24.75 25.25 24.75V23.25C24.4544 23.25 23.6913 23.5661 23.1287 24.1287L24.1893 25.1893ZM25.2185 24.7493C25.5107 24.7616 25.793 24.8593 26.0302 25.0303L26.9073 23.8134C26.432 23.4709 25.8668 23.2753 25.2815 23.2507L25.2185 24.7493ZM24.8338 23.6749C24.7235 23.5656 24.637 23.4346 24.5798 23.2903L23.1853 23.843C23.3189 24.1799 23.5207 24.4854 23.7781 24.7404L24.8338 23.6749ZM24.5798 23.2903C24.5226 23.1459 24.4958 22.9913 24.5013 22.8361L23.0022 22.7833C22.9895 23.1454 23.0518 23.5062 23.1853 23.843L24.5798 23.2903ZM24.5013 22.8361C24.5068 22.6809 24.5443 22.5285 24.6116 22.3885L23.2595 21.739C23.1026 22.0656 23.015 22.4211 23.0022 22.7833L24.5013 22.8361ZM24.6116 22.3885C24.6788 22.2486 24.7743 22.124 24.892 22.0228L23.9139 20.8855C23.6392 21.1218 23.4164 21.4124 23.2595 21.739L24.6116 22.3885ZM24.892 22.0228C25.0098 21.9215 25.1472 21.8457 25.2956 21.8002L24.8557 20.3662C24.5093 20.4724 24.1886 20.6493 23.9139 20.8855L24.892 22.0228ZM25.2956 21.8002C25.4441 21.7546 25.6004 21.7403 25.7546 21.7581L25.9267 20.268C25.5667 20.2265 25.2021 20.2599 24.8557 20.3662L25.2956 21.8002ZM25.7546 21.7581C25.9089 21.7759 26.0578 21.8255 26.192 21.9037L26.9471 20.6076C26.6341 20.4252 26.2866 20.3096 25.9267 20.268L25.7546 21.7581ZM26.192 21.9037C26.3261 21.9818 26.4427 22.087 26.5342 22.2124L27.7458 21.3279C27.5321 21.0353 27.2602 20.79 26.9471 20.6076L26.192 21.9037ZM27.14 21.7702C26.5332 22.211 26.5332 22.2109 26.5332 22.2109C26.5331 22.2109 26.5331 22.2108 26.5331 22.2108C26.533 22.2107 26.533 22.2106 26.5329 22.2106C26.5328 22.2104 26.5328 22.2104 26.5327 22.2103C26.5326 22.2102 26.5326 22.2102 26.5327 22.2102C26.5328 22.2104 26.5333 22.2111 26.534 22.2121C26.5355 22.2142 26.5382 22.218 26.5419 22.2232C26.5492 22.2336 26.5604 22.2498 26.5742 22.2702C26.6022 22.3118 26.6384 22.3676 26.6734 22.4271C26.7098 22.4891 26.7373 22.5422 26.7535 22.5804C26.7785 22.6392 26.75 22.5987 26.75 22.5H28.25C28.25 22.2841 28.1765 22.0938 28.134 21.9937C28.0827 21.8731 28.0202 21.7585 27.9666 21.6672C27.9116 21.5737 27.8578 21.4909 27.8183 21.4323C27.7983 21.4026 27.7814 21.3782 27.7691 21.3606C27.7629 21.3518 27.7578 21.3447 27.754 21.3394C27.7522 21.3368 27.7506 21.3346 27.7494 21.3329C27.7488 21.3321 27.7482 21.3313 27.7478 21.3307C27.7476 21.3304 27.7474 21.3302 27.7472 21.3299C27.7471 21.3298 27.747 21.3297 27.747 21.3296C27.7469 21.3295 27.7469 21.3295 27.7469 21.3294C27.7468 21.3294 27.7468 21.3293 27.14 21.7702ZM27.3995 21.5279C28.0903 20.7407 29.0341 20.25 30.125 20.25V18.75C28.5506 18.75 27.2116 19.4678 26.272 20.5386L27.3995 21.5279ZM30.125 20.25C32.1536 20.25 33.7812 21.9097 33.7812 23.963H35.2812C35.2812 21.1065 33.007 18.75 30.125 18.75V20.25ZM33.7812 23.9634C33.7814 24.1961 33.7596 24.4283 33.7162 24.6569L35.1898 24.9369C35.2508 24.6157 35.2814 24.2895 35.2812 23.9625L33.7812 23.9634Z" fill="#E93E71"/>
</g>
<path d="M32 62.2929L29.2071 59.5H34.7929L32 62.2929Z" fill="#E93E71" stroke="#E93E71"/>
<defs>
<filter id="filter0_dd_369_11975" x="0" y="0" width="64" height="74" filterUnits="userSpaceOnUse" color-interpolation-filters="sRGB">
<feFlood flood-opacity="0" result="BackgroundImageFix"/>
<feColorMatrix in="SourceAlpha" type="matrix" values="0 0 0 0 0 0 0 0 0 0 0 0 0 0 0 0 0 0 127 0" result="hardAlpha"/>
<feOffset/>
<feGaussianBlur stdDeviation="1"/>
<feComposite in2="hardAlpha" operator="out"/>
<feColorMatrix type="matrix" values="0 0 0 0 0.913725 0 0 0 0 0.243137 0 0 0 0 0.443137 0 0 0 1 0"/>
<feBlend mode="normal" in2="BackgroundImageFix" result="effect1_dropShadow_369_11975"/>
<feColorMatrix in="SourceAlpha" type="matrix" values="0 0 0 0 0 0 0 0 0 0 0 0 0 0 0 0 0 0 127 0" result="hardAlpha"/>
<feOffset/>
<feGaussianBlur stdDeviation="4"/>
<feComposite in2="hardAlpha" operator="out"/>
<feColorMatrix type="matrix" values="0 0 0 0 0.913725 0 0 0 0 0.243137 0 0 0 0 0.443137 0 0 0 0.5 0"/>
<feBlend mode="normal" in2="effect1_dropShadow_369_11975" result="effect2_dropShadow_369_11975"/>
<feBlend mode="normal" in="SourceGraphic" in2="effect2_dropShadow_369_11975" result="shape"/>
</filter>
<linearGradient id="paint0_linear_369_11975" x1="32" y1="8" x2="32" y2="66" gradientUnits="userSpaceOnUse">
<stop/>
<stop offset="1" stop-opacity="0"/>
</linearGradient>
</defs>
</svg>
