<svg width="26" height="26" viewBox="0 0 26 26" fill="none" xmlns="http://www.w3.org/2000/svg">
<g id="Vector">
<path id="Vector_2" d="M10.3083 17.8049L9.30769 21.3077L8.30708 17.8049C8.04846 16.9001 7.56357 16.0762 6.89816 15.4108C6.23276 14.7454 5.40879 14.2605 4.504 14.0018L1 13L4.50277 11.9994C5.40756 11.7408 6.23153 11.2559 6.89693 10.5905C7.56234 9.92507 8.04723 9.1011 8.30585 8.19631L9.30769 4.69231L10.3083 8.19508C10.5669 9.09986 11.0518 9.92384 11.7172 10.5892C12.3826 11.2546 13.2066 11.7395 14.1114 11.9982L17.6154 13L14.1126 14.0006C13.2078 14.2592 12.3839 14.7441 11.7185 15.4095C11.053 16.0749 10.5682 16.8989 10.3095 17.8037L10.3083 17.8049ZM20.7034 8.95692L20.3846 10.2308L20.0658 8.95692C19.8834 8.22657 19.5059 7.55953 18.9737 7.02711C18.4415 6.4947 17.7746 6.11691 17.0443 5.93415L15.7692 5.61538L17.0443 5.29662C17.7746 5.11386 18.4415 4.73607 18.9737 4.20366C19.5059 3.67124 19.8834 3.0042 20.0658 2.27385L20.3846 1L20.7034 2.27385C20.886 3.00435 21.2636 3.67149 21.7961 4.20393C22.3285 4.73636 22.9957 5.11405 23.7262 5.29662L25 5.61538L23.7262 5.93415C22.9957 6.11672 22.3285 6.49441 21.7961 7.02684C21.2636 7.55928 20.886 8.22642 20.7034 8.95692ZM19.0234 23.544L18.5385 25L18.0535 23.544C17.9176 23.1362 17.6886 22.7656 17.3846 22.4616C17.0806 22.1576 16.71 21.9286 16.3022 21.7926L14.8462 21.3077L16.3022 20.8228C16.71 20.6868 17.0806 20.4578 17.3846 20.1538C17.6886 19.8498 17.9176 19.4792 18.0535 19.0714L18.5385 17.6154L19.0234 19.0714C19.1593 19.4792 19.3884 19.8498 19.6924 20.1538C19.9963 20.4578 20.3669 20.6868 20.7748 20.8228L22.2308 21.3077L20.7748 21.7926C20.3669 21.9286 19.9963 22.1576 19.6924 22.4616C19.3884 22.7656 19.1593 23.1362 19.0234 23.544Z" stroke="#00FFD1" stroke-width="1.5" stroke-linecap="round" stroke-linejoin="round"/>
</g>
</svg>
