<svg width="64" height="74" viewBox="0 0 64 74" fill="none" xmlns="http://www.w3.org/2000/svg">
<g filter="url(#filter0_dd_504_3752)">
<path d="M55.5 32C55.5 35.1788 54.0546 38.8664 51.8195 42.6501C49.5914 46.4219 46.6133 50.2316 43.624 53.6409C40.6365 57.0483 37.6474 60.0449 35.4044 62.1901C34.2832 63.2625 33.3492 64.1214 32.696 64.7118C32.4058 64.9741 32.1711 65.1833 32 65.3347C31.8289 65.1833 31.5942 64.9741 31.304 64.7118C30.6508 64.1214 29.7168 63.2625 28.5956 62.1901C26.3526 60.0449 23.3635 57.0483 20.376 53.6409C17.3867 50.2316 14.4086 46.4219 12.1805 42.6501C9.94536 38.8664 8.5 35.1788 8.5 32C8.5 19.0213 19.0213 8.5 32 8.5C44.9787 8.5 55.5 19.0213 55.5 32Z" fill="url(#paint0_linear_504_3752)" fill-opacity="0.75" stroke="#00FFD1"/>
<path d="M29.3083 34.8049L28.3077 38.3077L27.3071 34.8049C27.0485 33.9001 26.5636 33.0762 25.8982 32.4108C25.2328 31.7454 24.4088 31.2605 23.504 31.0018L20 30L23.5028 28.9994C24.4076 28.7408 25.2315 28.2559 25.8969 27.5905C26.5623 26.9251 27.0472 26.1011 27.3058 25.1963L28.3077 21.6923L29.3083 25.1951C29.5669 26.0999 30.0518 26.9238 30.7172 27.5892C31.3826 28.2546 32.2066 28.7395 33.1114 28.9982L36.6154 30L33.1126 31.0006C32.2078 31.2592 31.3839 31.7441 30.7185 32.4095C30.053 33.0749 29.5682 33.8989 29.3095 34.8037L29.3083 34.8049ZM39.7034 25.9569L39.3846 27.2308L39.0658 25.9569C38.8834 25.2266 38.5059 24.5595 37.9737 24.0271C37.4415 23.4947 36.7746 23.1169 36.0443 22.9342L34.7692 22.6154L36.0443 22.2966C36.7746 22.1139 37.4415 21.7361 37.9737 21.2037C38.5059 20.6712 38.8834 20.0042 39.0658 19.2738L39.3846 18L39.7034 19.2738C39.886 20.0044 40.2636 20.6715 40.7961 21.2039C41.3285 21.7364 41.9957 22.1141 42.7262 22.2966L44 22.6154L42.7262 22.9342C41.9957 23.1167 41.3285 23.4944 40.7961 24.0268C40.2636 24.5593 39.886 25.2264 39.7034 25.9569ZM38.0234 40.544L37.5385 42L37.0535 40.544C36.9176 40.1362 36.6886 39.7656 36.3846 39.4616C36.0806 39.1576 35.71 38.9286 35.3022 38.7926L33.8462 38.3077L35.3022 37.8228C35.71 37.6868 36.0806 37.4578 36.3846 37.1538C36.6886 36.8498 36.9176 36.4792 37.0535 36.0714L37.5385 34.6154L38.0234 36.0714C38.1593 36.4792 38.3884 36.8498 38.6924 37.1538C38.9963 37.4578 39.3669 37.6868 39.7748 37.8228L41.2308 38.3077L39.7748 38.7926C39.3669 38.9286 38.9963 39.1576 38.6924 39.4616C38.3884 39.7656 38.1593 40.1362 38.0234 40.544Z" stroke="#00FFD1" stroke-width="1.5" stroke-linecap="round" stroke-linejoin="round"/>
</g>
<path d="M32 62.2929L29.2071 59.5H34.7929L32 62.2929Z" fill="#00FFD1" stroke="#00FFD1"/>
<defs>
<filter id="filter0_dd_504_3752" x="0" y="0" width="64" height="74" filterUnits="userSpaceOnUse" color-interpolation-filters="sRGB">
<feFlood flood-opacity="0" result="BackgroundImageFix"/>
<feColorMatrix in="SourceAlpha" type="matrix" values="0 0 0 0 0 0 0 0 0 0 0 0 0 0 0 0 0 0 127 0" result="hardAlpha"/>
<feOffset/>
<feGaussianBlur stdDeviation="1"/>
<feComposite in2="hardAlpha" operator="out"/>
<feColorMatrix type="matrix" values="0 0 0 0 0 0 0 0 0 1 0 0 0 0 0.819608 0 0 0 1 0"/>
<feBlend mode="normal" in2="BackgroundImageFix" result="effect1_dropShadow_504_3752"/>
<feColorMatrix in="SourceAlpha" type="matrix" values="0 0 0 0 0 0 0 0 0 0 0 0 0 0 0 0 0 0 127 0" result="hardAlpha"/>
<feOffset/>
<feGaussianBlur stdDeviation="4"/>
<feComposite in2="hardAlpha" operator="out"/>
<feColorMatrix type="matrix" values="0 0 0 0 0 0 0 0 0 1 0 0 0 0 0.819608 0 0 0 0.5 0"/>
<feBlend mode="normal" in2="effect1_dropShadow_504_3752" result="effect2_dropShadow_504_3752"/>
<feBlend mode="normal" in="SourceGraphic" in2="effect2_dropShadow_504_3752" result="shape"/>
</filter>
<linearGradient id="paint0_linear_504_3752" x1="32" y1="8" x2="32" y2="66" gradientUnits="userSpaceOnUse">
<stop/>
<stop offset="1" stop-opacity="0"/>
</linearGradient>
</defs>
</svg>
