<svg width="24" height="24" viewBox="0 0 24 24" fill="none" xmlns="http://www.w3.org/2000/svg">
<path d="M24 11.995C24 18.6 18.6188 23.995 12.0217 24C8.83346 23.999 5.77607 22.7316 3.52173 20.4764C1.2674 18.2213 0.000658377 15.163 0 11.9739C0.00745149 5.38134 5.4073 -0.00375529 12.0106 -2.85845e-05C15.1882 0.00849881 18.2331 1.27507 20.4798 3.5228C22.7265 5.77053 23.9921 8.81657 24 11.995ZM12.0292 22.8708C17.9792 22.8534 22.8786 17.9341 22.8699 11.9863C22.8612 6.03848 17.9506 1.12544 11.9994 1.12544C6.02825 1.12544 1.10158 6.07202 1.12766 12.041C1.15622 17.9925 6.08414 22.8882 12.0292 22.8708Z" fill="white"/>
<path d="M9.88766 13.151C9.88766 14.7701 9.8931 16.3095 9.88222 17.8501C9.89333 18.0662 9.84677 18.2812 9.74836 18.468C9.69066 18.5379 9.61915 18.592 9.53946 18.626C9.45977 18.6599 9.37407 18.6729 9.2891 18.6639C9.14762 18.6324 8.99634 18.445 8.92778 18.2842C8.85922 18.1234 8.90166 17.9359 8.90166 17.7509C8.90166 13.9418 8.90166 10.1327 8.90166 6.32363C8.90166 5.42396 8.98002 5.33206 9.81257 5.34173C11.1827 5.35866 12.5649 5.26918 13.9187 5.4421C14.7885 5.5586 15.5834 6.04646 16.1352 6.80248C16.687 7.5585 16.9526 8.52338 16.8756 9.49304C16.7233 11.5959 15.2802 13.1147 13.3746 13.1473C12.2351 13.1667 11.1 13.151 9.88766 13.151ZM9.92031 6.48809V11.9913C11.2099 11.9913 12.4756 12.0856 13.7294 11.9647C15.0495 11.8377 15.8929 10.6442 15.8777 9.20161C15.8635 7.77834 14.9798 6.6211 13.6499 6.50985C12.4277 6.40828 11.1969 6.48809 9.92031 6.48809Z" fill="white"/>
</svg>
