<svg width="64" height="74" viewBox="0 0 64 74" fill="none" xmlns="http://www.w3.org/2000/svg">
<g filter="url(#filter0_dd_28_5192)">
<path d="M55.5 32C55.5 35.1788 54.0546 38.8664 51.8195 42.6501C49.5914 46.4219 46.6133 50.2316 43.624 53.6409C40.6365 57.0483 37.6474 60.0449 35.4044 62.1901C34.2832 63.2625 33.3492 64.1214 32.696 64.7118C32.4058 64.9741 32.1711 65.1833 32 65.3347C31.8289 65.1833 31.5942 64.9741 31.304 64.7118C30.6508 64.1214 29.7168 63.2625 28.5956 62.1901C26.3526 60.0449 23.3635 57.0483 20.376 53.6409C17.3867 50.2316 14.4086 46.4219 12.1805 42.6501C9.94536 38.8664 8.5 35.1788 8.5 32C8.5 19.0213 19.0213 8.5 32 8.5C44.9787 8.5 55.5 19.0213 55.5 32Z" fill="url(#paint0_linear_28_5192)" fill-opacity="0.75" stroke="#E9983E"/>
<g clip-path="url(#clip0_28_5192)">
<g filter="url(#filter1_dd_28_5192)">
<path d="M29 40V30H35V40M23 27L32 20L41 27V38C41 38.5304 40.7893 39.0391 40.4142 39.4142C40.0391 39.7893 39.5304 40 39 40H25C24.4696 40 23.9609 39.7893 23.5858 39.4142C23.2107 39.0391 23 38.5304 23 38V27Z" stroke="#E9983E" stroke-width="1.5" stroke-linecap="round" stroke-linejoin="round" shape-rendering="crispEdges"/>
</g>
</g>
<path d="M32 62.2929L29.2071 59.5H34.7929L32 62.2929Z" fill="#E9983E" stroke="#E9983E"/>
</g>
<defs>
<filter id="filter0_dd_28_5192" x="0" y="-2" width="64" height="76" filterUnits="userSpaceOnUse" color-interpolation-filters="sRGB">
<feFlood flood-opacity="0" result="BackgroundImageFix"/>
<feColorMatrix in="SourceAlpha" type="matrix" values="0 0 0 0 0 0 0 0 0 0 0 0 0 0 0 0 0 0 127 0" result="hardAlpha"/>
<feOffset/>
<feGaussianBlur stdDeviation="1"/>
<feComposite in2="hardAlpha" operator="out"/>
<feColorMatrix type="matrix" values="0 0 0 0 1 0 0 0 0 0.78 0 0 0 0 0 0 0 0 1 0"/>
<feBlend mode="normal" in2="BackgroundImageFix" result="effect1_dropShadow_28_5192"/>
<feColorMatrix in="SourceAlpha" type="matrix" values="0 0 0 0 0 0 0 0 0 0 0 0 0 0 0 0 0 0 127 0" result="hardAlpha"/>
<feOffset/>
<feGaussianBlur stdDeviation="4"/>
<feComposite in2="hardAlpha" operator="out"/>
<feColorMatrix type="matrix" values="0 0 0 0 1 0 0 0 0 0.78 0 0 0 0 0 0 0 0 0.5 0"/>
<feBlend mode="normal" in2="effect1_dropShadow_28_5192" result="effect2_dropShadow_28_5192"/>
<feBlend mode="normal" in="SourceGraphic" in2="effect2_dropShadow_28_5192" result="shape"/>
</filter>
<filter id="filter1_dd_28_5192" x="14.25" y="11.25" width="35.5" height="37.5" filterUnits="userSpaceOnUse" color-interpolation-filters="sRGB">
<feFlood flood-opacity="0" result="BackgroundImageFix"/>
<feColorMatrix in="SourceAlpha" type="matrix" values="0 0 0 0 0 0 0 0 0 0 0 0 0 0 0 0 0 0 127 0" result="hardAlpha"/>
<feOffset/>
<feGaussianBlur stdDeviation="1"/>
<feComposite in2="hardAlpha" operator="out"/>
<feColorMatrix type="matrix" values="0 0 0 0 1 0 0 0 0 0.78 0 0 0 0 0 0 0 0 1 0"/>
<feBlend mode="normal" in2="BackgroundImageFix" result="effect1_dropShadow_28_5192"/>
<feColorMatrix in="SourceAlpha" type="matrix" values="0 0 0 0 0 0 0 0 0 0 0 0 0 0 0 0 0 0 127 0" result="hardAlpha"/>
<feOffset/>
<feGaussianBlur stdDeviation="4"/>
<feComposite in2="hardAlpha" operator="out"/>
<feColorMatrix type="matrix" values="0 0 0 0 1 0 0 0 0 0.78 0 0 0 0 0 0 0 0 0.5 0"/>
<feBlend mode="normal" in2="effect1_dropShadow_28_5192" result="effect2_dropShadow_28_5192"/>
<feBlend mode="normal" in="SourceGraphic" in2="effect2_dropShadow_28_5192" result="shape"/>
</filter>
<linearGradient id="paint0_linear_28_5192" x1="32" y1="8" x2="32" y2="66" gradientUnits="userSpaceOnUse">
<stop/>
<stop offset="1" stop-opacity="0"/>
</linearGradient>
<clipPath id="clip0_28_5192">
<rect width="24" height="24" fill="white" transform="translate(20 18)"/>
</clipPath>
</defs>
</svg>
