<svg width="65" height="74" viewBox="0 0 65 74" fill="none" xmlns="http://www.w3.org/2000/svg">
<g filter="url(#filter0_dd_28_4912)">
<path d="M55.5 32C55.5 35.1788 54.0546 38.8664 51.8195 42.6501C49.5914 46.4219 46.6133 50.2316 43.624 53.6409C40.6365 57.0483 37.6474 60.0449 35.4044 62.1901C34.2832 63.2625 33.3492 64.1214 32.696 64.7118C32.4058 64.9741 32.1711 65.1833 32 65.3347C31.8289 65.1833 31.5942 64.9741 31.304 64.7118C30.6508 64.1214 29.7168 63.2625 28.5956 62.1901C26.3526 60.0449 23.3635 57.0483 20.376 53.6409C17.3867 50.2316 14.4086 46.4219 12.1805 42.6501C9.94536 38.8664 8.5 35.1788 8.5 32C8.5 19.0213 19.0213 8.5 32 8.5C44.9787 8.5 55.5 19.0213 55.5 32Z" fill="url(#paint0_linear_28_4912)" fill-opacity="0.75" stroke="#E9983E"/>
<g clip-path="url(#clip0_28_4912)">
<g filter="url(#filter1_dd_28_4912)">
<path d="M38 21C37.2044 21 36.4413 21.3161 35.8787 21.8787C35.3161 22.4413 35 23.2044 35 24V36C35 36.7956 35.3161 37.5587 35.8787 38.1213C36.4413 38.6839 37.2044 39 38 39C38.7956 39 39.5587 38.6839 40.1213 38.1213C40.6839 37.5587 41 36.7956 41 36C41 35.2044 40.6839 34.4413 40.1213 33.8787C39.5587 33.3161 38.7956 33 38 33H26C25.2044 33 24.4413 33.3161 23.8787 33.8787C23.3161 34.4413 23 35.2044 23 36C23 36.7956 23.3161 37.5587 23.8787 38.1213C24.4413 38.6839 25.2044 39 26 39C26.7956 39 27.5587 38.6839 28.1213 38.1213C28.6839 37.5587 29 36.7956 29 36V24C29 23.2044 28.6839 22.4413 28.1213 21.8787C27.5587 21.3161 26.7956 21 26 21C25.2044 21 24.4413 21.3161 23.8787 21.8787C23.3161 22.4413 23 23.2044 23 24C23 24.7956 23.3161 25.5587 23.8787 26.1213C24.4413 26.6839 25.2044 27 26 27H38C38.7956 27 39.5587 26.6839 40.1213 26.1213C40.6839 25.5587 41 24.7956 41 24C41 23.2044 40.6839 22.4413 40.1213 21.8787C39.5587 21.3161 38.7956 21 38 21Z" stroke="#E9983E" stroke-width="1.5" stroke-linecap="round" stroke-linejoin="round" shape-rendering="crispEdges"/>
</g>
</g>
</g>
<g filter="url(#filter2_dd_28_4912)">
<path d="M54.0248 10.8813C53.7056 10.5619 53.3266 10.3085 52.9094 10.1357C52.4923 9.96284 52.0451 9.87387 51.5936 9.87387C51.142 9.87387 50.6949 9.96284 50.2777 10.1357C49.8606 10.3085 49.4816 10.5619 49.1623 10.8813L48.4998 11.5438L47.8373 10.8813C47.1925 10.2365 46.318 9.87421 45.4061 9.87421C44.4942 9.87421 43.6196 10.2365 42.9748 10.8813C42.33 11.5261 41.9678 12.4006 41.9678 13.3125C41.9678 14.2244 42.33 15.099 42.9748 15.7438L43.6373 16.4063L48.4998 21.2688L53.3623 16.4063L54.0248 15.7438C54.3442 15.4245 54.5976 15.0455 54.7704 14.6284C54.9433 14.2112 55.0322 13.7641 55.0322 13.3125C55.0322 12.861 54.9433 12.4138 54.7704 11.9967C54.5976 11.5795 54.3442 11.2005 54.0248 10.8813Z" fill="#E93E3E"/>
<path d="M54.0248 10.8813C53.7056 10.5619 53.3266 10.3085 52.9094 10.1357C52.4923 9.96284 52.0451 9.87387 51.5936 9.87387C51.142 9.87387 50.6949 9.96284 50.2777 10.1357C49.8606 10.3085 49.4816 10.5619 49.1623 10.8813L48.4998 11.5438L47.8373 10.8813C47.1925 10.2365 46.318 9.87421 45.4061 9.87421C44.4942 9.87421 43.6196 10.2365 42.9748 10.8813C42.33 11.5261 41.9678 12.4006 41.9678 13.3125C41.9678 14.2244 42.33 15.099 42.9748 15.7438L43.6373 16.4063L48.4998 21.2688L53.3623 16.4063L54.0248 15.7438C54.3442 15.4245 54.5976 15.0455 54.7704 14.6284C54.9433 14.2112 55.0322 13.7641 55.0322 13.3125C55.0322 12.861 54.9433 12.4138 54.7704 11.9967C54.5976 11.5795 54.3442 11.2005 54.0248 10.8813Z" stroke="white" stroke-width="2" stroke-linecap="round" stroke-linejoin="round"/>
</g>
<path d="M32 62.2929L29.2071 59.5H34.7929L32 62.2929Z" fill="#E9983E" stroke="#E9983E"/>
<defs>
<filter id="filter0_dd_28_4912" x="0" y="0" width="64" height="74" filterUnits="userSpaceOnUse" color-interpolation-filters="sRGB">
<feFlood flood-opacity="0" result="BackgroundImageFix"/>
<feColorMatrix in="SourceAlpha" type="matrix" values="0 0 0 0 0 0 0 0 0 0 0 0 0 0 0 0 0 0 127 0" result="hardAlpha"/>
<feOffset/>
<feGaussianBlur stdDeviation="1"/>
<feComposite in2="hardAlpha" operator="out"/>
<feColorMatrix type="matrix" values="0 0 0 0 1 0 0 0 0 0.78 0 0 0 0 0 0 0 0 1 0"/>
<feBlend mode="normal" in2="BackgroundImageFix" result="effect1_dropShadow_28_4912"/>
<feColorMatrix in="SourceAlpha" type="matrix" values="0 0 0 0 0 0 0 0 0 0 0 0 0 0 0 0 0 0 127 0" result="hardAlpha"/>
<feOffset/>
<feGaussianBlur stdDeviation="4"/>
<feComposite in2="hardAlpha" operator="out"/>
<feColorMatrix type="matrix" values="0 0 0 0 1 0 0 0 0 0.78 0 0 0 0 0 0 0 0 0.5 0"/>
<feBlend mode="normal" in2="effect1_dropShadow_28_4912" result="effect2_dropShadow_28_4912"/>
<feBlend mode="normal" in="SourceGraphic" in2="effect2_dropShadow_28_4912" result="shape"/>
</filter>
<filter id="filter1_dd_28_4912" x="14.25" y="12.25" width="35.5" height="35.5" filterUnits="userSpaceOnUse" color-interpolation-filters="sRGB">
<feFlood flood-opacity="0" result="BackgroundImageFix"/>
<feColorMatrix in="SourceAlpha" type="matrix" values="0 0 0 0 0 0 0 0 0 0 0 0 0 0 0 0 0 0 127 0" result="hardAlpha"/>
<feOffset/>
<feGaussianBlur stdDeviation="1"/>
<feComposite in2="hardAlpha" operator="out"/>
<feColorMatrix type="matrix" values="0 0 0 0 1 0 0 0 0 0.78 0 0 0 0 0 0 0 0 1 0"/>
<feBlend mode="normal" in2="BackgroundImageFix" result="effect1_dropShadow_28_4912"/>
<feColorMatrix in="SourceAlpha" type="matrix" values="0 0 0 0 0 0 0 0 0 0 0 0 0 0 0 0 0 0 127 0" result="hardAlpha"/>
<feOffset/>
<feGaussianBlur stdDeviation="4"/>
<feComposite in2="hardAlpha" operator="out"/>
<feColorMatrix type="matrix" values="0 0 0 0 1 0 0 0 0 0.78 0 0 0 0 0 0 0 0 0.5 0"/>
<feBlend mode="normal" in2="effect1_dropShadow_28_4912" result="effect2_dropShadow_28_4912"/>
<feBlend mode="normal" in="SourceGraphic" in2="effect2_dropShadow_28_4912" result="shape"/>
</filter>
<filter id="filter2_dd_28_4912" x="32.9678" y="0.873871" width="31.0645" height="29.3949" filterUnits="userSpaceOnUse" color-interpolation-filters="sRGB">
<feFlood flood-opacity="0" result="BackgroundImageFix"/>
<feColorMatrix in="SourceAlpha" type="matrix" values="0 0 0 0 0 0 0 0 0 0 0 0 0 0 0 0 0 0 127 0" result="hardAlpha"/>
<feOffset/>
<feGaussianBlur stdDeviation="1"/>
<feComposite in2="hardAlpha" operator="out"/>
<feColorMatrix type="matrix" values="0 0 0 0 1 0 0 0 0 0.78 0 0 0 0 0 0 0 0 1 0"/>
<feBlend mode="normal" in2="BackgroundImageFix" result="effect1_dropShadow_28_4912"/>
<feColorMatrix in="SourceAlpha" type="matrix" values="0 0 0 0 0 0 0 0 0 0 0 0 0 0 0 0 0 0 127 0" result="hardAlpha"/>
<feOffset/>
<feGaussianBlur stdDeviation="4"/>
<feComposite in2="hardAlpha" operator="out"/>
<feColorMatrix type="matrix" values="0 0 0 0 1 0 0 0 0 0.78 0 0 0 0 0 0 0 0 0.5 0"/>
<feBlend mode="normal" in2="effect1_dropShadow_28_4912" result="effect2_dropShadow_28_4912"/>
<feBlend mode="normal" in="SourceGraphic" in2="effect2_dropShadow_28_4912" result="shape"/>
</filter>
<linearGradient id="paint0_linear_28_4912" x1="32" y1="8" x2="32" y2="66" gradientUnits="userSpaceOnUse">
<stop/>
<stop offset="1" stop-opacity="0"/>
</linearGradient>
<clipPath id="clip0_28_4912">
<rect width="24" height="24" fill="white" transform="translate(20 18)"/>
</clipPath>
</defs>
</svg>
