<svg width="24" height="24" viewBox="0 0 24 38" fill="none" xmlns="http://www.w3.org/2000/svg">
<g filter="url(#filter0_dd_398_4746)">
<path d="M11.3181 15.6857V15.3758C11.3181 13.1753 11.3181 10.9749 11.3181 8.77447C11.3181 8.39017 11.5588 8.08438 11.8945 8.02652C12.2706 7.96041 12.6043 8.12983 12.721 8.47591C12.7617 8.61536 12.7791 8.76055 12.7726 8.90567C12.7726 11.0455 12.7726 13.1857 12.7726 15.3262V15.6774C12.8494 15.6545 12.9243 15.6258 12.9968 15.5917C13.6404 15.2115 13.9865 14.6423 13.9917 13.8995C14.0051 12.197 13.9979 10.4956 13.9917 8.79306C13.9818 8.65043 14.0143 8.50806 14.0853 8.38394C14.1563 8.25982 14.2625 8.15953 14.3904 8.09574C14.6342 7.96661 14.907 7.95628 15.1136 8.1381C15.2668 8.27943 15.3774 8.46088 15.4328 8.66186C15.4886 8.86848 15.4555 9.10608 15.4545 9.32923C15.4545 10.9357 15.47 12.5441 15.4276 14.1506C15.4018 15.0958 14.9545 15.8789 14.2313 16.4863C14.1479 16.5483 14.0813 16.6302 14.0378 16.7247C13.9943 16.8191 13.9752 16.9229 13.9824 17.0266C13.9906 20.6892 13.9906 24.3508 13.9824 28.0113C13.9879 28.276 13.9393 28.539 13.8397 28.7844C13.7402 29.0297 13.5916 29.2522 13.4032 29.4382C13.2148 29.6242 12.9904 29.7699 12.7438 29.8663C12.4972 29.9627 12.2335 30.0078 11.9689 29.9989C10.908 29.9834 10.0712 29.0908 10.0712 27.9648C10.0712 24.6638 10.0712 21.3631 10.0712 18.0628C10.0712 17.6671 10.0805 17.2715 10.065 16.8768C10.0574 16.7647 10.0084 16.6594 9.92757 16.5814C9.07322 15.8396 8.62487 14.914 8.63107 13.7642C8.6414 12.0886 8.63107 10.4119 8.63107 8.73624C8.62698 8.56713 8.6836 8.40215 8.79068 8.2712C8.89776 8.14024 9.0482 8.05198 9.21475 8.02239C9.59079 7.95938 9.91827 8.13293 10.0412 8.48004C10.0775 8.61182 10.0932 8.74843 10.0877 8.88501C10.0877 10.5266 10.0877 12.1681 10.0877 13.8097C10.0877 14.5793 10.4121 15.1847 11.0825 15.5855C11.1589 15.6238 11.2375 15.6573 11.3181 15.6857ZM11.5681 17.287V27.846C11.5681 27.9235 11.5681 28.0009 11.5681 28.0784C11.5695 28.1538 11.5891 28.2277 11.6253 28.2939C11.6615 28.3601 11.7132 28.4165 11.7759 28.4583C11.8387 28.5001 11.9106 28.5261 11.9856 28.5341C12.0606 28.5421 12.1364 28.5318 12.2065 28.504C12.4483 28.4235 12.5402 28.254 12.5402 27.879V17.287H11.5681Z" fill="#FDA29B"/>
<path d="M19.9127 19.2492H17.583C17.4796 19.2492 17.3761 19.2492 17.2727 19.2492C16.8009 19.2368 16.4813 18.9492 16.4813 18.4796C16.4813 16.3888 16.4202 14.2929 16.5371 12.2084C16.6613 10.0049 18.1261 8.47277 19.8786 8.08277C20.1387 8.02731 20.404 7.99956 20.67 8.00001C20.8528 8.00102 21.0281 8.0732 21.1586 8.20123C21.2892 8.32926 21.3647 8.50309 21.3693 8.68588C21.3693 8.73761 21.3693 8.78933 21.3693 8.84106V27.9722C21.3693 28.9343 20.7776 29.7246 19.9024 29.9377C19.6137 30.0124 19.3118 30.02 19.0198 29.96C18.7277 29.9 18.4533 29.774 18.2174 29.5916C17.9816 29.4091 17.7906 29.1752 17.6591 28.9076C17.5277 28.64 17.4592 28.3459 17.4589 28.0477C17.4392 25.6983 17.4516 23.3479 17.4589 20.9986C17.4589 20.5362 17.7806 20.2041 18.1975 20.2041C18.6144 20.2041 18.9372 20.5434 18.9372 21.0234C18.9372 23.3386 18.9372 25.6539 18.9372 27.9691C18.9372 28.3922 19.2206 28.6353 19.5734 28.4936C19.6981 28.4282 19.8006 28.3274 19.8682 28.2039C19.9089 28.1095 19.9242 28.0061 19.9127 27.9039C19.9127 25.1066 19.9127 22.3096 19.9127 19.513V19.2492ZM19.9034 9.6159C19.4773 9.74063 19.0948 9.9826 18.7996 10.3142C18.2058 10.9628 17.972 11.7625 17.9637 12.6108C17.9441 14.266 17.9565 15.914 17.9565 17.5661C17.9565 17.624 17.9627 17.683 17.9658 17.7451H19.9034V9.6159Z" fill="#FDA29B"/>
</g>
<defs>
<filter id="filter0_dd_398_4746" x="-5" y="-1" width="40" height="40" filterUnits="userSpaceOnUse" color-interpolation-filters="sRGB">
<feFlood flood-opacity="0" result="BackgroundImageFix"/>
<feColorMatrix in="SourceAlpha" type="matrix" values="0 0 0 0 0 0 0 0 0 0 0 0 0 0 0 0 0 0 127 0" result="hardAlpha"/>
<feOffset/>
<feGaussianBlur stdDeviation="1"/>
<feComposite in2="hardAlpha" operator="out"/>
<feColorMatrix type="matrix" values="0 0 0 0 0.992157 0 0 0 0 0.635294 0 0 0 0 0.607843 0 0 0 1 0"/>
<feBlend mode="normal" in2="BackgroundImageFix" result="effect1_dropShadow_398_4746"/>
<feColorMatrix in="SourceAlpha" type="matrix" values="0 0 0 0 0 0 0 0 0 0 0 0 0 0 0 0 0 0 127 0" result="hardAlpha"/>
<feOffset/>
<feGaussianBlur stdDeviation="4"/>
<feComposite in2="hardAlpha" operator="out"/>
<feColorMatrix type="matrix" values="0 0 0 0 0.992157 0 0 0 0 0.635294 0 0 0 0 0.607843 0 0 0 0.5 0"/>
<feBlend mode="normal" in2="effect1_dropShadow_398_4746" result="effect2_dropShadow_398_4746"/>
<feBlend mode="normal" in="SourceGraphic" in2="effect2_dropShadow_398_4746" result="shape"/>
</filter>
</defs>
</svg>
