<svg width="65" height="74" viewBox="0 0 65 74" fill="none" xmlns="http://www.w3.org/2000/svg">
<g filter="url(#filter0_dd_356_9841)">
<path d="M55.5 32C55.5 35.1788 54.0546 38.8664 51.8195 42.6501C49.5914 46.4219 46.6133 50.2316 43.624 53.6409C40.6365 57.0483 37.6474 60.0449 35.4044 62.1901C34.2832 63.2625 33.3492 64.1214 32.696 64.7118C32.4058 64.9741 32.1711 65.1833 32 65.3347C31.8289 65.1833 31.5942 64.9741 31.304 64.7118C30.6508 64.1214 29.7168 63.2625 28.5956 62.1901C26.3526 60.0449 23.3635 57.0483 20.376 53.6409C17.3867 50.2316 14.4086 46.4219 12.1805 42.6501C9.94536 38.8664 8.5 35.1788 8.5 32C8.5 19.0213 19.0213 8.5 32 8.5C44.9787 8.5 55.5 19.0213 55.5 32Z" fill="url(#paint0_linear_356_9841)" fill-opacity="0.75" stroke="#FDA29B"/>
<g filter="url(#filter1_dd_356_9841)">
<path d="M28.3181 26.6857V26.3758C28.3181 24.1753 28.3181 21.9749 28.3181 19.7745C28.3181 19.3902 28.5588 19.0844 28.8945 19.0265C29.2706 18.9604 29.6043 19.1298 29.721 19.4759C29.7617 19.6154 29.7791 19.7606 29.7726 19.9057C29.7726 22.0455 29.7726 24.1857 29.7726 26.3262V26.6774C29.8494 26.6545 29.9243 26.6258 29.9968 26.5917C30.6404 26.2115 30.9865 25.6423 30.9917 24.8995C31.0051 23.197 30.9979 21.4956 30.9917 19.7931C30.9818 19.6504 31.0143 19.5081 31.0853 19.3839C31.1563 19.2598 31.2625 19.1595 31.3904 19.0957C31.6342 18.9666 31.907 18.9563 32.1136 19.1381C32.2668 19.2794 32.3774 19.4609 32.4328 19.6619C32.4886 19.8685 32.4555 20.1061 32.4545 20.3292C32.4545 21.9357 32.47 23.5441 32.4276 25.1506C32.4018 26.0958 31.9545 26.8789 31.2313 27.4863C31.1479 27.5483 31.0813 27.6303 31.0378 27.7247C30.9943 27.8191 30.9752 27.9229 30.9824 28.0266C30.9906 31.6892 30.9906 35.3508 30.9824 39.0113C30.9879 39.276 30.9393 39.539 30.8397 39.7844C30.7402 40.0297 30.5916 40.2522 30.4032 40.4382C30.2148 40.6242 29.9904 40.7699 29.7438 40.8663C29.4972 40.9627 29.2335 41.0078 28.9689 40.9989C27.908 40.9834 27.0712 40.0908 27.0712 38.9648C27.0712 35.6638 27.0712 32.3631 27.0712 29.0628C27.0712 28.6671 27.0805 28.2715 27.065 27.8768C27.0574 27.7647 27.0084 27.6594 26.9276 27.5814C26.0732 26.8396 25.6249 25.914 25.6311 24.7642C25.6414 23.0886 25.6311 21.4119 25.6311 19.7362C25.627 19.5671 25.6836 19.4022 25.7907 19.2712C25.8978 19.1402 26.0482 19.052 26.2148 19.0224C26.5908 18.9594 26.9183 19.1329 27.0412 19.48C27.0775 19.6118 27.0932 19.7484 27.0877 19.885C27.0877 21.5266 27.0877 23.1681 27.0877 24.8097C27.0877 25.5793 27.4121 26.1847 28.0825 26.5855C28.1589 26.6238 28.2375 26.6573 28.3181 26.6857ZM28.5681 28.287V38.846C28.5681 38.9235 28.5681 39.0009 28.5681 39.0784C28.5695 39.1538 28.5891 39.2277 28.6253 39.2939C28.6615 39.3601 28.7132 39.4165 28.7759 39.4583C28.8387 39.5001 28.9106 39.5261 28.9856 39.5341C29.0606 39.5421 29.1364 39.5318 29.2065 39.504C29.4483 39.4235 29.5402 39.254 29.5402 38.879V28.287H28.5681Z" fill="#FDA29B"/>
<path d="M36.9127 30.2492H34.583C34.4796 30.2492 34.3761 30.2492 34.2727 30.2492C33.8009 30.2368 33.4813 29.9492 33.4813 29.4796C33.4813 27.3888 33.4202 25.2929 33.5371 23.2084C33.6613 21.0049 35.1261 19.4728 36.8786 19.0828C37.1387 19.0273 37.404 18.9996 37.67 19C37.8528 19.001 38.0281 19.0732 38.1586 19.2012C38.2892 19.3293 38.3647 19.5031 38.3693 19.6859C38.3693 19.7376 38.3693 19.7893 38.3693 19.8411V38.9722C38.3693 39.9343 37.7776 40.7246 36.9024 40.9377C36.6137 41.0124 36.3118 41.02 36.0198 40.96C35.7277 40.9 35.4533 40.774 35.2174 40.5916C34.9816 40.4091 34.7906 40.1752 34.6591 39.9076C34.5277 39.64 34.4592 39.3459 34.4589 39.0477C34.4392 36.6983 34.4516 34.3479 34.4589 31.9986C34.4589 31.5362 34.7806 31.2041 35.1975 31.2041C35.6144 31.2041 35.9372 31.5434 35.9372 32.0234C35.9372 34.3386 35.9372 36.6539 35.9372 38.9691C35.9372 39.3922 36.2206 39.6353 36.5734 39.4936C36.6981 39.4282 36.8006 39.3274 36.8682 39.2039C36.9089 39.1095 36.9242 39.0061 36.9127 38.9039C36.9127 36.1066 36.9127 33.3096 36.9127 30.513V30.2492ZM36.9034 20.6159C36.4773 20.7406 36.0948 20.9826 35.7996 21.3142C35.2058 21.9628 34.972 22.7625 34.9637 23.6108C34.9441 25.266 34.9565 26.914 34.9565 28.5661C34.9565 28.624 34.9627 28.683 34.9658 28.7451H36.9034V20.6159Z" fill="#FDA29B"/>
</g>
<path d="M54.0248 10.8813C53.7056 10.5619 53.3266 10.3085 52.9094 10.1357C52.4923 9.96284 52.0451 9.87387 51.5936 9.87387C51.142 9.87387 50.6949 9.96284 50.2777 10.1357C49.8606 10.3085 49.4816 10.5619 49.1623 10.8813L48.4998 11.5438L47.8373 10.8813C47.1925 10.2365 46.318 9.87421 45.4061 9.87421C44.4942 9.87421 43.6196 10.2365 42.9748 10.8813C42.33 11.5261 41.9678 12.4006 41.9678 13.3125C41.9678 14.2244 42.33 15.099 42.9748 15.7438L43.6373 16.4063L48.4998 21.2688L53.3623 16.4063L54.0248 15.7438C54.3442 15.4245 54.5976 15.0455 54.7704 14.6284C54.9433 14.2112 55.0322 13.7641 55.0322 13.3125C55.0322 12.861 54.9433 12.4138 54.7704 11.9967C54.5976 11.5795 54.3442 11.2005 54.0248 10.8813V10.8813Z" fill="#E93E3E" stroke="white" stroke-width="2" stroke-linecap="round" stroke-linejoin="round"/>
<path d="M32 62.2929L29.2071 59.5H34.7929L32 62.2929Z" fill="#FDA29B" stroke="#FDA29B"/>
</g>
<defs>
<filter id="filter0_dd_356_9841" x="0" y="-2" width="64.0322" height="76" filterUnits="userSpaceOnUse" color-interpolation-filters="sRGB">
<feFlood flood-opacity="0" result="BackgroundImageFix"/>
<feColorMatrix in="SourceAlpha" type="matrix" values="0 0 0 0 0 0 0 0 0 0 0 0 0 0 0 0 0 0 127 0" result="hardAlpha"/>
<feOffset/>
<feGaussianBlur stdDeviation="1"/>
<feComposite in2="hardAlpha" operator="out"/>
<feColorMatrix type="matrix" values="0 0 0 0 0.992157 0 0 0 0 0.635294 0 0 0 0 0.607843 0 0 0 1 0"/>
<feBlend mode="normal" in2="BackgroundImageFix" result="effect1_dropShadow_356_9841"/>
<feColorMatrix in="SourceAlpha" type="matrix" values="0 0 0 0 0 0 0 0 0 0 0 0 0 0 0 0 0 0 127 0" result="hardAlpha"/>
<feOffset/>
<feGaussianBlur stdDeviation="4"/>
<feComposite in2="hardAlpha" operator="out"/>
<feColorMatrix type="matrix" values="0 0 0 0 0.992157 0 0 0 0 0.635294 0 0 0 0 0.607843 0 0 0 0.5 0"/>
<feBlend mode="normal" in2="effect1_dropShadow_356_9841" result="effect2_dropShadow_356_9841"/>
<feBlend mode="normal" in="SourceGraphic" in2="effect2_dropShadow_356_9841" result="shape"/>
</filter>
<filter id="filter1_dd_356_9841" x="12" y="10" width="40" height="40" filterUnits="userSpaceOnUse" color-interpolation-filters="sRGB">
<feFlood flood-opacity="0" result="BackgroundImageFix"/>
<feColorMatrix in="SourceAlpha" type="matrix" values="0 0 0 0 0 0 0 0 0 0 0 0 0 0 0 0 0 0 127 0" result="hardAlpha"/>
<feOffset/>
<feGaussianBlur stdDeviation="1"/>
<feComposite in2="hardAlpha" operator="out"/>
<feColorMatrix type="matrix" values="0 0 0 0 0.992157 0 0 0 0 0.635294 0 0 0 0 0.607843 0 0 0 1 0"/>
<feBlend mode="normal" in2="BackgroundImageFix" result="effect1_dropShadow_356_9841"/>
<feColorMatrix in="SourceAlpha" type="matrix" values="0 0 0 0 0 0 0 0 0 0 0 0 0 0 0 0 0 0 127 0" result="hardAlpha"/>
<feOffset/>
<feGaussianBlur stdDeviation="4"/>
<feComposite in2="hardAlpha" operator="out"/>
<feColorMatrix type="matrix" values="0 0 0 0 0.992157 0 0 0 0 0.635294 0 0 0 0 0.607843 0 0 0 0.5 0"/>
<feBlend mode="normal" in2="effect1_dropShadow_356_9841" result="effect2_dropShadow_356_9841"/>
<feBlend mode="normal" in="SourceGraphic" in2="effect2_dropShadow_356_9841" result="shape"/>
</filter>
<linearGradient id="paint0_linear_356_9841" x1="32" y1="8" x2="32" y2="66" gradientUnits="userSpaceOnUse">
<stop/>
<stop offset="1" stop-opacity="0"/>
</linearGradient>
</defs>
</svg>
