<svg width="64" height="74" viewBox="0 0 64 74" fill="none" xmlns="http://www.w3.org/2000/svg">
<g filter="url(#filter0_dd_356_9803)">
<path d="M55.5 32C55.5 35.1788 54.0546 38.8664 51.8195 42.6501C49.5914 46.4219 46.6133 50.2316 43.624 53.6409C40.6365 57.0483 37.6474 60.0449 35.4044 62.1901C34.2832 63.2625 33.3492 64.1214 32.696 64.7118C32.4058 64.9741 32.1711 65.1833 32 65.3347C31.8289 65.1833 31.5942 64.9741 31.304 64.7118C30.6508 64.1214 29.7168 63.2625 28.5956 62.1901C26.3526 60.0449 23.3635 57.0483 20.376 53.6409C17.3867 50.2316 14.4086 46.4219 12.1805 42.6501C9.94536 38.8664 8.5 35.1788 8.5 32C8.5 19.0213 19.0213 8.5 32 8.5C44.9787 8.5 55.5 19.0213 55.5 32Z" fill="url(#paint0_linear_356_9803)" fill-opacity="0.75" stroke="#00FFD1"/>
<g clip-path="url(#clip0_356_9803)">
<g filter="url(#filter1_dd_356_9803)">
<path d="M38 21C37.2044 21 36.4413 21.3161 35.8787 21.8787C35.3161 22.4413 35 23.2044 35 24V36C35 36.7956 35.3161 37.5587 35.8787 38.1213C36.4413 38.6839 37.2044 39 38 39C38.7956 39 39.5587 38.6839 40.1213 38.1213C40.6839 37.5587 41 36.7956 41 36C41 35.2044 40.6839 34.4413 40.1213 33.8787C39.5587 33.3161 38.7956 33 38 33H26C25.2044 33 24.4413 33.3161 23.8787 33.8787C23.3161 34.4413 23 35.2044 23 36C23 36.7956 23.3161 37.5587 23.8787 38.1213C24.4413 38.6839 25.2044 39 26 39C26.7956 39 27.5587 38.6839 28.1213 38.1213C28.6839 37.5587 29 36.7956 29 36V24C29 23.2044 28.6839 22.4413 28.1213 21.8787C27.5587 21.3161 26.7956 21 26 21C25.2044 21 24.4413 21.3161 23.8787 21.8787C23.3161 22.4413 23 23.2044 23 24C23 24.7956 23.3161 25.5587 23.8787 26.1213C24.4413 26.6839 25.2044 27 26 27H38C38.7956 27 39.5587 26.6839 40.1213 26.1213C40.6839 25.5587 41 24.7956 41 24C41 23.2044 40.6839 22.4413 40.1213 21.8787C39.5587 21.3161 38.7956 21 38 21Z" stroke="#00FFD1" stroke-width="1.5" stroke-linecap="round" stroke-linejoin="round" shape-rendering="crispEdges"/>
</g>
</g>
<path d="M32 62.2929L29.2071 59.5H34.7929L32 62.2929Z" fill="#00FFD1" stroke="#00FFD1"/>
</g>
<defs>
<filter id="filter0_dd_356_9803" x="0" y="-2" width="64" height="76" filterUnits="userSpaceOnUse" color-interpolation-filters="sRGB">
<feFlood flood-opacity="0" result="BackgroundImageFix"/>
<feColorMatrix in="SourceAlpha" type="matrix" values="0 0 0 0 0 0 0 0 0 0 0 0 0 0 0 0 0 0 127 0" result="hardAlpha"/>
<feOffset/>
<feGaussianBlur stdDeviation="1"/>
<feComposite in2="hardAlpha" operator="out"/>
<feColorMatrix type="matrix" values="0 0 0 0 0 0 0 0 0 1 0 0 0 0 0.819608 0 0 0 1 0"/>
<feBlend mode="normal" in2="BackgroundImageFix" result="effect1_dropShadow_356_9803"/>
<feColorMatrix in="SourceAlpha" type="matrix" values="0 0 0 0 0 0 0 0 0 0 0 0 0 0 0 0 0 0 127 0" result="hardAlpha"/>
<feOffset/>
<feGaussianBlur stdDeviation="4"/>
<feComposite in2="hardAlpha" operator="out"/>
<feColorMatrix type="matrix" values="0 0 0 0 0 0 0 0 0 1 0 0 0 0 0.819608 0 0 0 0.5 0"/>
<feBlend mode="normal" in2="effect1_dropShadow_356_9803" result="effect2_dropShadow_356_9803"/>
<feBlend mode="normal" in="SourceGraphic" in2="effect2_dropShadow_356_9803" result="shape"/>
</filter>
<filter id="filter1_dd_356_9803" x="14.25" y="12.25" width="35.5" height="35.5" filterUnits="userSpaceOnUse" color-interpolation-filters="sRGB">
<feFlood flood-opacity="0" result="BackgroundImageFix"/>
<feColorMatrix in="SourceAlpha" type="matrix" values="0 0 0 0 0 0 0 0 0 0 0 0 0 0 0 0 0 0 127 0" result="hardAlpha"/>
<feOffset/>
<feGaussianBlur stdDeviation="1"/>
<feComposite in2="hardAlpha" operator="out"/>
<feColorMatrix type="matrix" values="0 0 0 0 0 0 0 0 0 1 0 0 0 0 0.819608 0 0 0 1 0"/>
<feBlend mode="normal" in2="BackgroundImageFix" result="effect1_dropShadow_356_9803"/>
<feColorMatrix in="SourceAlpha" type="matrix" values="0 0 0 0 0 0 0 0 0 0 0 0 0 0 0 0 0 0 127 0" result="hardAlpha"/>
<feOffset/>
<feGaussianBlur stdDeviation="4"/>
<feComposite in2="hardAlpha" operator="out"/>
<feColorMatrix type="matrix" values="0 0 0 0 0 0 0 0 0 1 0 0 0 0 0.819608 0 0 0 0.5 0"/>
<feBlend mode="normal" in2="effect1_dropShadow_356_9803" result="effect2_dropShadow_356_9803"/>
<feBlend mode="normal" in="SourceGraphic" in2="effect2_dropShadow_356_9803" result="shape"/>
</filter>
<linearGradient id="paint0_linear_356_9803" x1="32" y1="8" x2="32" y2="66" gradientUnits="userSpaceOnUse">
<stop/>
<stop offset="1" stop-opacity="0"/>
</linearGradient>
<clipPath id="clip0_356_9803">
<rect width="24" height="24" fill="white" transform="translate(20 18)"/>
</clipPath>
</defs>
</svg>
