<svg width="312" height="121" viewBox="0 0 312 121" fill="none" xmlns="http://www.w3.org/2000/svg">
<path d="M191.343 60.0979C190.779 59.1016 190.855 58.0218 190.909 56.9503C190.963 56.0397 190.981 56.0397 190.053 55.8893C189.084 55.7259 188.193 55.2737 187.506 54.5968C186.819 53.9199 186.371 53.0524 186.225 52.1172C186.108 51.1963 186.292 50.2631 186.751 49.4474C187.211 48.6318 187.924 47.9741 188.791 47.566C189.68 47.1604 190.68 47.0373 191.647 47.2145C192.613 47.3918 193.496 47.8601 194.168 48.5518C194.732 49.1031 195.11 49.8046 195.254 50.5653C195.347 51.1522 195.615 51.2148 196.14 51.0791C197.72 50.6462 199.406 50.7442 200.92 51.3569C202.102 51.8352 203.134 52.5224 203.827 53.598C203.776 53.7473 203.693 53.8845 203.584 54.0008C203.474 54.1171 203.34 54.2097 203.19 54.2727C199.701 56.094 196.301 58.0657 192.864 59.9726C192.391 60.2274 191.887 60.5157 191.343 60.0979Z" fill="#FFDB00"/>
<path d="M206.642 41.1809C203.138 41.302 200.894 38.2568 200.872 35.7504C200.853 33.3609 202.916 30.1757 206.681 30.2112C207.434 30.2109 208.178 30.3538 208.873 30.6316C209.567 30.9095 210.197 31.3167 210.727 31.83C211.257 32.3432 211.676 32.9522 211.959 33.6219C212.243 34.2915 212.386 35.0085 212.38 35.7315C212.363 39.0504 209.478 41.3271 206.642 41.1809Z" fill="#FCB816"/>
<path d="M223.31 114.129C221.524 114.781 219.678 114.612 217.84 114.487C217.227 114.442 216.619 114.351 216.021 114.215C215.867 114.176 215.724 114.104 215.603 114.003C215.482 113.903 215.387 113.778 215.324 113.637C215.261 113.496 215.233 113.343 215.241 113.19C215.248 113.037 215.293 112.887 215.369 112.753C215.537 112.444 215.832 112.459 216.123 112.482C216.992 112.548 217.848 112.651 218.715 112.69C219.543 112.733 220.372 112.724 221.198 112.665C222.545 112.55 223.477 111.153 223.102 109.91C223.019 109.635 222.823 109.645 222.595 109.666C222.02 109.72 221.446 109.787 220.868 109.812C219.893 109.878 218.912 109.8 217.961 109.58C216.052 109.092 214.92 107.909 214.579 106.051C214.478 105.468 214.429 104.878 214.431 104.288C214.414 101.854 214.42 99.4232 214.431 96.9899C214.431 96.5722 214.325 96.0626 214.846 95.9101C215.398 95.7258 216 95.7421 216.54 95.956C216.938 96.1357 216.806 96.5659 216.808 96.9001C216.808 99.229 216.808 101.556 216.808 103.885C216.806 104.443 216.841 105.001 216.914 105.556C217.103 106.869 217.748 107.502 219.111 107.786C220.31 108.033 221.485 107.801 222.665 107.648C222.976 107.607 223.073 107.402 223.069 107.126C223.069 106.884 223.069 106.64 223.069 106.397C223.069 103.334 223.069 100.275 223.069 97.2218C223.069 96.9795 223.069 96.7351 223.069 96.4928C223.068 96.4054 223.086 96.3187 223.122 96.2382C223.157 96.1576 223.209 96.0849 223.275 96.0244C223.341 95.964 223.418 95.9171 223.504 95.8867C223.589 95.8562 223.68 95.8429 223.771 95.8474C223.916 95.8474 224.06 95.8474 224.205 95.8474C225.372 95.837 225.437 95.8913 225.439 97.0087C225.439 101.353 225.439 105.697 225.439 110.04C225.439 111.471 225.148 112.809 223.918 113.799C223.758 113.97 223.545 114.086 223.31 114.129Z" fill="#F7D087"/>
<path d="M292.147 103.611V109.449C292.166 110.213 292.09 110.977 291.919 111.723C291.554 113.137 290.672 114.054 289.168 114.351C286.996 114.769 284.849 114.56 282.705 114.196C282.09 114.09 281.914 113.682 282.036 112.999C282.144 112.394 282.598 112.448 283.033 112.515C284.429 112.708 285.84 112.785 287.25 112.745C289.114 112.709 289.931 111.861 289.898 110.063C289.898 109.691 289.757 109.58 289.375 109.63C288.768 109.71 288.154 109.764 287.541 109.795C286.566 109.866 285.585 109.784 284.636 109.553C282.877 109.089 281.762 108.018 281.358 106.291C281.242 105.782 281.183 105.262 281.184 104.741C281.184 102.17 281.184 99.5965 281.184 97.0254C281.184 96.662 281.026 96.2004 281.471 95.981C281.736 95.8686 282.021 95.8078 282.31 95.8021C282.6 95.7964 282.887 95.8458 283.157 95.9476C283.483 96.0479 283.494 96.3654 283.496 96.6515C283.496 97.2426 283.496 97.8337 283.496 98.4248C283.496 100.44 283.485 102.456 283.496 104.482C283.513 107.038 284.478 107.943 287.115 107.903C287.73 107.902 288.343 107.845 288.947 107.734C289.829 107.556 289.842 107.575 289.842 106.671C289.842 103.648 289.842 100.625 289.842 97.6018V97.0672C289.842 95.9267 290.52 95.4965 291.664 95.885C292.036 96.0103 292.134 96.2735 292.132 96.6181C292.132 97.5914 292.132 98.5626 292.132 99.5422L292.147 103.611Z" fill="white"/>
<path d="M191.343 60.0979C192.462 60.1939 193.22 59.4399 194.076 58.9721C197.018 57.3659 199.905 55.6636 202.893 54.1326C203.21 53.9697 203.507 53.7734 203.814 53.5917C205.458 55.2083 206.069 59.0786 203.892 61.892C200.633 66.1111 193.72 65.3968 191.493 60.5929C191.432 60.4312 191.382 60.2658 191.343 60.0979Z" fill="#FFEA00"/>
<path d="M1.23598 91.0665C2.29834 91.0665 2.3331 91.0978 2.62639 92.1212C4.01681 97.0087 5.40869 101.896 6.802 106.784C6.87476 107.052 6.96176 107.317 7.0627 107.577C7.08932 107.661 7.14392 107.735 7.2181 107.786C7.29229 107.837 7.38195 107.864 7.47331 107.861C7.56402 107.856 7.65075 107.824 7.72128 107.769C7.79182 107.714 7.84262 107.639 7.86654 107.554C7.96865 107.295 8.04903 107.028 8.12507 106.761C9.50245 101.94 10.8784 97.1187 12.2529 92.2967C12.3094 92.0878 12.3898 91.9019 12.4376 91.6993C12.4656 91.5075 12.5713 91.3342 12.7315 91.2168C12.8918 91.0995 13.0938 91.0477 13.2935 91.0727H13.6194C14.9577 91.056 15.0641 91.1834 14.7057 92.4471C13.2472 97.4264 11.7858 102.405 10.3215 107.383C10.2628 107.592 10.202 107.784 10.1347 107.983C9.67626 109.311 8.91153 109.852 7.49287 109.862C6.0742 109.873 5.20084 109.286 4.79024 107.916C3.22312 102.677 1.6683 97.4355 0.125801 92.1902C-0.169663 91.2189 -0.000195586 91.0581 1.23598 91.0665Z" fill="white"/>
<path d="M157.141 101.453C158.673 99.8054 160.111 98.2577 161.556 96.7142C161.84 96.4092 162.049 95.9748 162.514 95.9121C163.194 95.814 163.885 95.814 164.565 95.9121C164.886 95.9622 164.947 96.2171 164.767 96.4677C164.615 96.6618 164.45 96.8453 164.272 97.017C162.729 98.6267 161.187 100.237 159.644 101.848C159.105 102.414 159.103 102.429 159.62 103.03C161.187 104.852 162.766 106.662 164.326 108.488C164.563 108.768 165.023 109.037 164.821 109.453C164.619 109.869 164.109 109.635 163.735 109.695C162.733 109.854 162.069 109.455 161.458 108.678C160.109 106.965 158.66 105.336 157.256 103.665C156.889 103.834 157.024 104.112 157.024 104.327C157.009 105.752 157.024 107.176 157.013 108.603C157.013 108.981 157.098 109.459 156.635 109.599C156.052 109.795 155.414 109.779 154.843 109.553C154.66 109.478 154.636 109.277 154.625 109.104C154.615 108.895 154.625 108.686 154.625 108.478V92.1045C154.625 91.8956 154.625 91.6868 154.625 91.4779C154.619 91.3743 154.64 91.2707 154.686 91.1771C155.121 90.6007 155.747 90.9244 156.29 90.8743C156.38 90.8587 156.473 90.863 156.561 90.8868C156.65 90.9106 156.731 90.9534 156.8 91.0119C156.869 91.0703 156.923 91.143 156.958 91.2244C156.994 91.3059 157.009 91.394 157.004 91.4821C157.02 91.7244 157.015 91.9687 157.015 92.2131C157.015 94.888 157.015 97.5643 157.015 100.242C156.971 100.65 157.014 101.062 157.141 101.453Z" fill="#F7D087"/>
<path d="M268.466 109.505C268.236 109.196 268.286 108.841 268.286 108.496C268.286 103.003 268.286 97.51 268.286 92.0168C268.281 91.8078 268.287 91.5987 268.303 91.3902C268.303 91.3202 268.318 91.2509 268.347 91.1866C268.376 91.1224 268.418 91.0645 268.471 91.0167C268.524 90.9689 268.587 90.9321 268.656 90.9087C268.725 90.8853 268.798 90.8757 268.87 90.8806C269.087 90.8806 269.305 90.866 269.522 90.866C270.567 90.866 270.619 90.9119 270.621 91.9291C270.621 94.7474 270.621 97.5636 270.621 100.378V101.366L270.826 101.418C271.303 100.919 271.784 100.424 272.255 99.9182C273.291 98.805 274.321 97.6834 275.357 96.5764C275.62 96.2965 275.835 95.9226 276.272 95.8829C276.918 95.8053 277.571 95.8144 278.214 95.9101C278.269 95.916 278.322 95.9358 278.367 95.9676C278.411 95.9993 278.446 96.0418 278.468 96.0908C278.491 96.1397 278.499 96.1934 278.492 96.2464C278.486 96.2994 278.465 96.3498 278.432 96.3926C278.293 96.5945 278.131 96.7808 277.949 96.9481C276.404 98.5592 274.858 100.167 273.313 101.771C272.72 102.397 272.722 102.397 273.267 103.024C274.861 104.875 276.449 106.724 278.034 108.574C278.251 108.828 278.657 109.067 278.438 109.453C278.26 109.768 277.847 109.601 277.536 109.647C276.461 109.808 275.729 109.411 275.077 108.555C273.741 106.83 272.281 105.194 270.882 103.542C270.476 103.688 270.637 103.976 270.634 104.181C270.617 105.643 270.634 107.105 270.621 108.567C270.621 108.908 270.708 109.273 270.404 109.551C269.769 109.729 269.092 109.713 268.466 109.505Z" fill="white"/>
<path d="M74.307 101.426C74.8566 100.843 75.4084 100.263 75.9559 99.6759C76.8445 98.7172 77.7743 97.7961 78.6042 96.7852C79.1561 96.1168 79.7817 95.8077 80.6486 95.9351C81.0592 95.9956 81.6327 95.7262 81.8456 96.1439C82.0803 96.5867 81.5133 96.8415 81.2395 97.1298C79.7796 98.6712 78.3001 100.194 76.8358 101.725C76.1493 102.443 76.1514 102.454 76.8228 103.233C78.3218 104.971 79.8339 106.696 81.3155 108.455C81.5697 108.755 82.1129 109.044 81.8739 109.484C81.6349 109.925 81.0853 109.641 80.6746 109.693C79.8056 109.816 79.2169 109.497 78.6694 108.801C77.2768 107.03 75.7778 105.336 74.3243 103.621C73.9224 103.749 74.081 104.039 74.0788 104.248C74.0615 105.672 74.0788 107.095 74.0636 108.519C74.0636 108.916 74.2179 109.445 73.69 109.612C73.1343 109.777 72.5387 109.771 71.9867 109.595C71.7999 109.539 71.7521 109.344 71.7455 109.165C71.7455 108.92 71.7455 108.678 71.7455 108.436C71.7455 103.016 71.7455 97.5976 71.7455 92.1797C71.7455 91.9374 71.7455 91.6951 71.7455 91.4507C71.7455 91.2063 71.8346 91.0205 72.0801 90.9766C72.6128 90.8805 73.1594 90.8805 73.6921 90.9766C73.9333 91.0163 74.018 91.2481 74.0419 91.457C74.0685 91.7347 74.0787 92.0136 74.0723 92.2925C74.0723 94.9659 74.0723 97.6401 74.0723 100.315V101.338L74.307 101.426Z" fill="white"/>
<path d="M188.799 95.3085C189.488 95.2981 190.173 95.4218 190.811 95.672C191.449 95.9222 192.028 96.2939 192.513 96.7646C192.998 97.2354 193.379 97.7955 193.633 98.4113C193.887 99.0272 194.009 99.6861 193.992 100.348C193.992 101.002 193.858 101.65 193.598 102.254C193.338 102.858 192.957 103.407 192.476 103.87C191.996 104.333 191.425 104.7 190.796 104.95C190.168 105.201 189.495 105.33 188.815 105.33C188.126 105.336 187.442 105.211 186.804 104.962C186.166 104.713 185.585 104.345 185.095 103.879C184.606 103.413 184.217 102.858 183.952 102.247C183.687 101.635 183.551 100.979 183.551 100.317C183.542 99.6539 183.672 98.9958 183.933 98.3819C184.195 97.768 184.582 97.2109 185.071 96.7437C185.561 96.2764 186.143 95.9086 186.784 95.6621C187.424 95.4155 188.11 95.2953 188.799 95.3085Z" fill="#F79420"/>
<path d="M140.128 104.265C140.128 102.943 140.128 101.623 140.128 100.296C140.122 99.7747 140.182 99.2542 140.306 98.7465C140.708 97.1132 141.849 96.0626 143.565 95.8098C144.927 95.6114 146.312 95.6114 147.673 95.8098C149.494 96.0751 150.643 97.1612 151.021 98.9073C151.139 99.452 151.197 100.007 151.193 100.564C151.193 103.206 151.193 105.848 151.193 108.49C151.193 108.885 151.375 109.415 150.876 109.612C150.291 109.806 149.655 109.806 149.07 109.612C148.883 109.562 148.825 109.371 148.82 109.194C148.82 108.952 148.81 108.707 148.81 108.465C148.81 105.823 148.81 103.181 148.81 100.539C148.81 98.1784 148.319 97.7105 145.907 97.7126C145.254 97.6807 144.599 97.7101 143.952 97.8003C143.645 97.8429 143.359 97.9745 143.133 98.1776C142.906 98.3806 142.749 98.6455 142.683 98.9366C142.562 99.4091 142.507 99.8953 142.52 100.382C142.52 103.057 142.52 105.734 142.52 108.413C142.52 108.691 142.52 108.968 142.496 109.248C142.498 109.355 142.458 109.459 142.385 109.539C142.311 109.618 142.209 109.669 142.099 109.681C141.593 109.729 141.084 109.729 140.578 109.681C140.111 109.624 140.122 109.213 140.122 108.858L140.128 104.265Z" fill="#FBE4BD"/>
<path d="M61.1262 104.21C61.1262 105.739 61.1262 107.268 61.1262 108.805C61.1262 109.641 61.0632 109.67 60.192 109.695C60.0117 109.695 59.8313 109.695 59.651 109.695C58.9449 109.658 58.8472 109.587 58.8341 108.889C58.8081 107.673 58.8189 106.458 58.8189 105.242C58.8189 103.644 58.8189 102.044 58.8189 100.438C58.8189 100.161 58.8189 99.8827 58.7972 99.6028C58.6712 98.3016 58.1607 97.7711 56.8311 97.6938C55.9312 97.606 55.0235 97.625 54.1284 97.7502C53.153 97.9235 52.7445 98.3037 52.5881 99.2436C52.5117 99.7589 52.4775 100.279 52.486 100.8C52.486 103.371 52.486 105.942 52.486 108.513C52.486 108.899 52.7033 109.44 52.1514 109.61C51.5923 109.774 50.9942 109.771 50.4373 109.599C50.3437 109.55 50.2736 109.467 50.2418 109.369C50.1922 109.235 50.1672 109.094 50.1679 108.952C50.2005 105.723 50.0289 102.487 50.2592 99.2624C50.396 97.368 51.8364 96.0354 53.8504 95.8119C55.0382 95.6887 56.2363 95.6887 57.4242 95.8119C59.5467 96.0208 60.9697 97.4703 61.1175 99.5276C61.1175 99.6321 61.1349 99.7365 61.1349 99.8389V104.225L61.1262 104.21Z" fill="white"/>
<path d="M99.5083 100.687C99.5083 101.833 99.5083 102.984 99.5083 104.127C99.4948 104.788 99.5998 105.447 99.819 106.073C100.273 107.327 101.175 107.899 102.643 107.901C104.112 107.903 105.02 107.358 105.496 106.111C105.733 105.454 105.846 104.762 105.83 104.066C105.822 101.738 105.822 99.4106 105.83 97.0838C105.83 96.6933 105.641 96.1523 106.2 96.004C106.755 95.8398 107.352 95.8575 107.896 96.0541C107.991 96.1082 108.066 96.1883 108.112 96.2841C108.158 96.3799 108.173 96.4868 108.155 96.5909C108.092 99.5756 108.346 102.564 107.999 105.541C107.89 106.518 107.465 107.438 106.782 108.17C105.309 109.762 103.41 110.109 101.34 109.718C99.4018 109.355 98.1439 108.198 97.5335 106.391C97.2867 105.627 97.1658 104.831 97.175 104.031C97.175 101.702 97.175 99.3751 97.175 97.0483C97.175 96.6849 97.0229 96.1836 97.4857 96.0311C98.0671 95.8221 98.71 95.8371 99.2802 96.0729C99.58 96.2045 99.4974 96.5617 99.4974 96.8332C99.4974 98.1177 99.4974 99.4022 99.4974 100.687H99.5083Z" fill="white"/>
<path d="M134.332 100.752C134.332 99.467 134.321 98.1825 134.332 96.8979C134.332 96.0353 134.438 95.956 135.333 95.9372C135.514 95.9372 135.694 95.9372 135.874 95.9372C136.409 95.9246 136.68 96.146 136.665 96.6828C136.65 97.3428 136.665 98.0029 136.665 98.6608C136.665 100.432 136.665 102.203 136.665 103.974C136.676 104.843 136.537 105.708 136.252 106.533C135.501 108.645 133.613 109.875 131.16 109.86C128.653 109.86 126.761 108.574 126.046 106.414C125.809 105.683 125.69 104.922 125.694 104.156C125.694 101.758 125.694 99.3619 125.694 96.9669C125.694 96.6035 125.566 96.1126 126.081 95.9977C126.635 95.8745 127.245 95.8118 127.777 96.0604C128.108 96.215 127.995 96.6202 127.995 96.923C127.995 99.0409 128.005 101.159 127.995 103.279C127.981 104.008 128.038 104.736 128.164 105.455C128.238 105.939 128.436 106.398 128.739 106.79C129.042 107.183 129.441 107.498 129.901 107.706C130.362 107.915 130.868 108.011 131.376 107.986C131.884 107.961 132.378 107.815 132.813 107.563C133.828 107.011 134.147 106.046 134.258 105.019C134.336 104.296 134.317 103.557 134.327 102.834C134.341 102.14 134.332 101.453 134.332 100.752Z" fill="white"/>
<path d="M171.2 67.3769C171.788 67.12 172.321 66.7503 172.957 66.5874C173.996 66.3173 175.1 66.4066 176.076 66.8395C177.053 67.2724 177.841 68.0215 178.302 68.956C178.762 69.8899 178.869 70.9491 178.604 71.9508C178.339 72.9525 177.719 73.8338 176.85 74.4429C175.956 75.0495 174.868 75.3328 173.777 75.2426C172.687 75.1524 171.665 74.6945 170.891 73.9499C170.135 73.2144 169.671 72.247 169.581 71.2165C169.49 70.186 169.779 69.1576 170.396 68.3106C170.581 68.0557 170.802 67.8239 171.006 67.5837C171.019 67.5368 171.043 67.4934 171.076 67.4574C171.11 67.4214 171.152 67.3937 171.2 67.3769Z" fill="#FAA71B"/>
<path d="M233.721 109.758C232.797 109.497 232.354 108.795 232.078 107.999C231.748 107.047 231.498 106.067 231.209 105.1L228.872 97.088C228.813 96.8791 228.748 96.689 228.707 96.4844C228.679 96.4005 228.676 96.3107 228.698 96.2253C228.721 96.14 228.768 96.0625 228.835 96.0019C229.358 95.6656 229.954 95.8515 230.518 95.8452C230.907 95.8452 231.062 96.1418 231.149 96.4593C231.425 97.466 231.697 98.4734 231.965 99.4816C232.633 101.966 233.299 104.45 233.964 106.934C233.97 106.968 233.978 107.003 233.988 107.036C234.108 107.35 234.094 107.815 234.531 107.851C235.046 107.891 235.109 107.414 235.205 107.053C235.929 104.371 236.653 101.687 237.377 98.9991C237.594 98.2284 237.786 97.4535 238.007 96.6869C238.242 95.8703 238.296 95.8515 239.211 95.8264C240.584 95.8034 240.682 95.9225 240.314 97.1757C239.314 100.584 238.315 103.988 237.319 107.385C237.082 108.2 236.773 108.966 236.056 109.515C236.024 109.588 235.968 109.648 235.896 109.686C235.824 109.724 235.742 109.737 235.661 109.724L235.428 109.768C234.867 109.904 234.28 109.9 233.721 109.758Z" fill="#FBE4BD"/>
<path d="M260.397 109.808C259.373 109.777 258.351 109.691 257.336 109.549C256.313 109.382 256.118 109.131 256.265 108.152C256.32 107.803 256.504 107.661 256.841 107.68C257.236 107.701 257.634 107.736 258.027 107.78C259.253 107.918 260.489 107.95 261.72 107.876C262.915 107.805 263.569 107.066 263.459 106.046C263.393 105.47 263.009 105.111 262.568 104.793C261.549 104.066 260.43 103.492 259.337 102.88C258.577 102.479 257.878 101.978 257.262 101.391C256.296 100.419 256.068 99.2644 256.393 98.0112C256.758 96.5951 257.914 96.027 259.27 95.8265C261.143 95.5508 263.017 95.7095 264.875 96.0124C265.483 96.1105 265.622 96.4301 265.559 97.1987C265.512 97.7836 265.151 97.8692 264.664 97.8253C263.335 97.6792 261.996 97.6206 260.658 97.6499C260.297 97.6332 259.935 97.6734 259.587 97.7689C258.564 98.1094 258.26 99.1328 258.968 99.9307C259.316 100.286 259.722 100.586 260.169 100.816C261.099 101.353 262.029 101.89 262.963 102.418C263.585 102.772 264.168 103.186 264.701 103.655C266.439 105.167 266.305 108.86 263.065 109.595C262.188 109.769 261.292 109.841 260.397 109.808Z" fill="white"/>
<path d="M210.477 100.102C210.477 102.5 210.46 104.906 210.477 107.293C210.494 108.964 210.16 110.529 209.223 111.961C208.802 112.607 208.461 113.302 208.05 113.954C207.724 114.474 206.23 114.766 205.708 114.443C205.629 114.398 205.57 114.326 205.542 114.242C205.514 114.157 205.519 114.066 205.556 113.985C205.631 113.79 205.721 113.6 205.823 113.417C206.128 112.866 206.403 112.296 206.751 111.769C207.8 110.186 208.111 108.452 208.096 106.602C208.057 101.879 208.083 97.1549 208.083 92.4303C208.083 90.9891 208.122 90.9516 209.573 91.0163C210.375 91.0518 210.468 91.1312 210.475 91.9687C210.49 93.4308 210.475 94.8929 210.475 96.3549L210.477 100.102Z" fill="#F2BC61"/>
<path d="M240.788 41.6675C241.293 41.6735 241.792 41.7766 242.255 41.9707C242.718 42.1648 243.136 42.446 243.484 42.7976C243.833 43.1493 244.104 43.5643 244.283 44.0184C244.462 44.4724 244.545 44.9564 244.527 45.4416C244.49 47.6577 243.084 49.0738 240.957 49.0174C238.75 48.961 236.773 47.3465 236.895 45.166C236.908 44.6894 237.02 44.2201 237.223 43.7854C237.426 43.3506 237.718 42.9591 238.08 42.6335C238.442 42.308 238.868 42.0549 239.333 41.8891C239.798 41.7232 240.293 41.6479 240.788 41.6675Z" fill="#FAA735"/>
<path d="M298.228 100.361C298.228 103.007 298.228 105.647 298.228 108.283C298.228 108.561 298.228 108.841 298.215 109.119C298.216 109.189 298.202 109.258 298.174 109.323C298.146 109.388 298.105 109.446 298.053 109.495C298 109.543 297.938 109.581 297.87 109.605C297.802 109.63 297.729 109.641 297.656 109.637C297.439 109.637 297.222 109.653 297.004 109.651C295.966 109.651 295.901 109.593 295.899 108.584C295.899 103.024 295.899 97.4648 295.899 91.9061C295.899 90.9036 295.951 90.8618 297.02 90.8618C297.163 90.8618 297.309 90.8744 297.454 90.8618C298.002 90.8305 298.245 91.0602 298.234 91.597C298.215 92.5348 298.234 93.4768 298.234 94.4125L298.228 100.361Z" fill="white"/>
<path d="M29.9677 100.146C29.9677 97.4723 29.9677 94.7989 29.9677 92.1254C29.9677 91.881 29.9677 91.6387 29.9786 91.3964C29.9756 91.3355 29.9856 91.2745 30.0079 91.2174C30.0301 91.1602 30.0642 91.108 30.1081 91.0638C30.152 91.0197 30.2047 90.9846 30.2631 90.9606C30.3215 90.9367 30.3843 90.9243 30.4478 90.9244C30.5195 90.9244 30.5912 90.9244 30.6651 90.9244C32.3379 90.9244 32.2706 90.82 32.2684 92.3217C32.2684 97.6353 32.2684 102.948 32.2684 108.26C32.2684 108.574 32.2684 108.887 32.2467 109.196C32.2475 109.319 32.1991 109.438 32.1114 109.529C32.0237 109.619 31.9034 109.673 31.7752 109.681C31.6666 109.695 31.558 109.681 31.4494 109.695C30.0329 109.777 29.9699 109.722 29.9699 108.384C29.9684 105.633 29.9677 102.888 29.9677 100.146Z" fill="white"/>
<path d="M191.602 3.21535C191.609 3.64212 191.526 4.06585 191.36 4.46151C191.193 4.85717 190.946 5.21672 190.632 5.51892C190.319 5.82112 189.946 6.05982 189.534 6.22094C189.123 6.38205 188.683 6.46231 188.239 6.45695C187.795 6.46054 187.356 6.37974 186.945 6.21923C186.534 6.05871 186.161 5.82163 185.846 5.52167C185.531 5.22172 185.28 4.86482 185.109 4.4715C184.939 4.07819 184.85 3.65622 184.85 3.22996C184.847 2.80354 184.932 2.38085 185.101 1.98658C185.27 1.59231 185.519 1.23439 185.834 0.933735C186.148 0.633081 186.522 0.395739 186.933 0.235569C187.344 0.0753994 187.784 -0.00438337 188.228 0.000900707C188.671 -0.00926469 189.112 0.0667044 189.524 0.224274C189.937 0.381844 190.311 0.617764 190.626 0.917902C190.941 1.21804 191.19 1.57623 191.358 1.971C191.525 2.36577 191.608 2.789 191.602 3.21535Z" fill="#F79421"/>
<path d="M170.111 102.826C170.111 104.735 170.111 106.644 170.111 108.555C170.111 109.666 170.057 109.71 168.877 109.693C168.734 109.693 168.588 109.693 168.443 109.693C168.352 109.698 168.261 109.685 168.176 109.654C168.09 109.623 168.013 109.576 167.948 109.514C167.883 109.453 167.832 109.379 167.799 109.298C167.766 109.216 167.75 109.129 167.754 109.041C167.754 108.904 167.754 108.764 167.754 108.624C167.754 104.768 167.754 100.914 167.754 97.0609C167.754 96.7518 167.672 96.3988 167.928 96.1649C168.443 95.695 169.092 95.8976 169.666 95.956C170.131 96.0062 170.1 96.4302 170.1 96.7915C170.106 98.7994 170.11 100.811 170.111 102.826Z" fill="#F2BC61"/>
<path d="M229.006 72.7406C228.763 73.5468 228.201 74.2291 227.44 74.6413C226.863 74.9671 226.191 75.1051 225.526 75.0348C224.861 74.9644 224.237 74.6894 223.747 74.2507C223.229 73.8121 222.878 73.2209 222.747 72.5696C222.617 71.9184 222.715 71.244 223.025 70.6519C223.32 70.0717 223.797 69.5949 224.388 69.2884C224.979 68.982 225.655 68.8613 226.321 68.9434C227.599 69.1397 228.837 70.0462 228.97 71.5459C228.991 71.784 229.056 72.0179 229.102 72.2539C229.094 72.4197 229.062 72.5836 229.006 72.7406Z" fill="#FCB817"/>
<path d="M188.489 79.558C188.639 78.1669 189.269 77.1247 190.748 76.7153C191.5 76.5004 192.309 76.5768 193.003 76.9281C193.697 77.2794 194.22 77.8777 194.461 78.5951C194.702 79.3092 194.648 80.0851 194.31 80.762C193.973 81.439 193.377 81.9651 192.647 82.2314C191.915 82.4973 191.105 82.4819 190.385 82.1887C189.665 81.8954 189.09 81.3467 188.78 80.6566C188.681 80.3972 188.597 80.1329 188.528 79.865C188.503 79.8482 188.482 79.8266 188.467 79.8016C188.451 79.7766 188.441 79.7487 188.438 79.7198C188.434 79.6909 188.437 79.6615 188.445 79.6337C188.454 79.6058 188.469 79.58 188.489 79.558Z" fill="#FCB817"/>
<path d="M170.155 92.3133C170.155 93.8088 170.059 93.8756 168.488 93.7503C168 93.7106 167.754 93.5185 167.75 93.0527C167.75 92.4992 167.75 91.9436 167.75 91.3818C167.75 90.9641 167.967 90.7782 168.412 90.728C169.998 90.5526 170.157 90.6863 170.155 92.3133Z" fill="#F2BC61"/>
<path d="M305.512 92.1317C305.512 92.305 305.512 92.4784 305.512 92.6517C305.488 93.5708 305.332 93.6961 304.337 93.671C303.566 93.6439 303.446 93.5436 303.418 92.8355C303.398 92.3489 303.418 91.8622 303.418 91.3735C303.403 90.8409 303.679 90.6132 304.209 90.6195C304.426 90.6195 304.643 90.6195 304.86 90.6195C304.951 90.6149 305.042 90.6295 305.126 90.6622C305.211 90.6949 305.287 90.7449 305.349 90.8088C305.411 90.8727 305.458 90.9488 305.486 91.032C305.514 91.1151 305.523 91.2031 305.512 91.2899V92.1254V92.1317Z" fill="white"/>
<path d="M251.318 92.1692C251.318 92.3091 251.318 92.447 251.318 92.5869C251.299 93.5498 251.101 93.7252 250.087 93.6688C249.352 93.6291 249.218 93.4997 249.176 92.7958C249.157 92.378 249.176 91.9603 249.176 91.5426C249.176 91.1917 249.165 90.7907 249.611 90.6862C250.097 90.5693 250.612 90.515 251.084 90.7823C251.159 90.8308 251.22 90.8977 251.26 90.9762C251.301 91.0547 251.318 91.142 251.312 91.2293C251.312 91.5426 251.312 91.8559 251.312 92.1671L251.318 92.1692Z" fill="white"/>
<path d="M310.055 92.1777C310.055 92.3155 310.055 92.4554 310.055 92.5954C310.038 93.5562 309.899 93.6898 308.936 93.6731C308.067 93.6564 307.971 93.5603 307.95 92.6831C307.95 92.3364 307.95 91.9897 307.95 91.6388C307.969 90.7281 308.925 90.2415 309.749 90.7198C309.843 90.7726 309.92 90.8488 309.973 90.9403C310.025 91.0318 310.052 91.1353 310.048 91.2398C310.048 91.551 310.048 91.8664 310.048 92.1777H310.055Z" fill="white"/>
<path d="M246.739 92.2779C246.739 92.3803 246.739 92.4868 246.739 92.587C246.726 93.5666 246.55 93.7233 245.539 93.6669C244.807 93.6272 244.694 93.5248 244.67 92.7876C244.653 92.3392 244.653 91.8901 244.67 91.4404C244.707 90.7198 244.844 90.6195 245.702 90.6216C246.56 90.6237 246.695 90.7198 246.732 91.4571C246.749 91.7244 246.739 92.0001 246.739 92.2779Z" fill="white"/>
<path d="M196.008 118.351C196.187 118.367 196.362 118.417 196.521 118.499C196.68 118.581 196.82 118.692 196.934 118.827C197.047 118.961 197.132 119.116 197.182 119.283C197.232 119.449 197.247 119.624 197.227 119.796C197.215 119.969 197.167 120.138 197.086 120.293C197.005 120.448 196.892 120.585 196.754 120.697C196.615 120.809 196.455 120.893 196.283 120.944C196.11 120.994 195.929 121.011 195.749 120.993C195.388 120.954 195.057 120.783 194.824 120.514C194.592 120.245 194.478 119.9 194.504 119.552C194.545 119.203 194.724 118.884 195.005 118.66C195.285 118.436 195.644 118.325 196.008 118.351Z" fill="#F89627"/>
<path d="M224.79 26.7149C224.825 26.9538 224.846 27.1943 224.853 27.4355C224.856 27.7305 224.755 28.0178 224.565 28.2501C224.376 28.4824 224.111 28.6459 223.812 28.7137C223.529 28.7698 223.235 28.7412 222.97 28.6318C222.705 28.5223 222.481 28.3374 222.328 28.1018C222.183 27.8427 222.126 27.5465 222.165 27.2547C222.204 26.963 222.337 26.6902 222.545 26.4747C222.761 26.2639 223.045 26.1301 223.351 26.0952C223.657 26.0603 223.966 26.1263 224.227 26.2825C224.433 26.4191 224.629 26.5691 224.813 26.7316L224.79 26.7149Z" fill="#F99F3A"/>
<path d="M203.77 70.3073C203.814 70.3595 203.859 70.4096 203.903 70.4598C204.01 70.7157 204.089 70.9817 204.137 71.2535C204.146 71.4273 204.118 71.6011 204.056 71.7644C203.993 71.9277 203.897 72.0772 203.773 72.2039C203.649 72.3306 203.499 72.432 203.333 72.502C203.168 72.5719 202.989 72.609 202.808 72.6111C202.618 72.6195 202.428 72.5891 202.251 72.5221C202.074 72.455 201.914 72.3528 201.781 72.222C201.648 72.0912 201.546 71.9349 201.48 71.7633C201.414 71.5917 201.387 71.4087 201.4 71.2263C201.409 71.0523 201.454 70.8817 201.533 70.7247C201.612 70.5678 201.723 70.4276 201.859 70.3125C201.995 70.1975 202.154 70.1098 202.326 70.0547C202.498 69.9996 202.679 69.9783 202.86 69.9919C203.182 70.0381 203.492 70.1453 203.77 70.3073Z" fill="#FFDE09"/>
<path d="M174.908 20.2629C174.728 20.2624 174.55 20.2265 174.386 20.1576C174.221 20.0886 174.072 19.9879 173.949 19.8618C173.826 19.7357 173.731 19.5867 173.67 19.424C173.609 19.2613 173.583 19.0884 173.594 18.9157C173.596 18.743 173.635 18.5726 173.708 18.4147C173.781 18.2569 173.887 18.1151 174.019 17.9978C174.151 17.8805 174.306 17.7903 174.475 17.7327C174.645 17.675 174.825 17.6512 175.004 17.6625C175.184 17.6635 175.361 17.6994 175.526 17.7681C175.691 17.8369 175.839 17.937 175.963 18.0626C176.086 18.1881 176.182 18.3364 176.244 18.4984C176.306 18.6605 176.334 18.833 176.325 19.0056C176.321 19.1787 176.281 19.3493 176.208 19.5072C176.134 19.6651 176.028 19.8071 175.895 19.9245C175.763 20.0419 175.607 20.1325 175.438 20.1906C175.268 20.2488 175.088 20.2734 174.908 20.2629Z" fill="#F89626"/>
<path d="M122.4 99.7616C121.809 97.1633 120.108 95.885 117.33 95.7764C115.775 95.7358 114.221 95.8817 112.704 96.2109C111.709 96.4197 111.666 96.4594 111.666 97.4453C111.666 100.121 111.666 102.796 111.666 105.474V109.956C111.666 111.21 111.666 112.463 111.666 113.716C111.666 113.99 111.598 114.343 111.896 114.472C112.439 114.678 113.039 114.696 113.595 114.524C114.073 114.403 114.001 113.929 114.001 113.549C114.001 112.542 114.001 111.533 114.001 110.527C114.001 109.664 114.012 109.668 114.87 109.733C115.838 109.838 116.814 109.863 117.786 109.808C120.221 109.599 121.764 108.423 122.348 106.159C122.876 104.059 122.893 101.87 122.4 99.7616ZM120.126 105.664C119.828 107.109 118.85 107.886 117.323 107.949C116.454 107.985 115.596 107.884 114.731 107.855C114.197 107.838 113.98 107.623 113.993 107.078C114.027 105.656 113.993 104.233 113.993 102.811C113.993 101.46 113.993 100.096 113.993 98.7528C113.993 97.9737 113.969 97.8546 114.838 97.7815C115.624 97.6856 116.417 97.6416 117.21 97.6499C118.776 97.7293 119.802 98.5084 120.113 99.9809C120.508 101.856 120.512 103.788 120.126 105.664Z" fill="white"/>
<path d="M311.993 104.26C311.993 102.869 311.993 101.48 311.993 100.083C311.981 99.873 311.957 99.6638 311.919 99.4565C311.619 97.276 310.318 96.0228 308.048 95.7721C306.383 95.5862 304.734 95.745 303.092 95.9956C302.336 96.1105 302.151 96.4301 302.286 97.276C302.366 97.7835 302.525 97.9026 303.348 97.8023C304.428 97.6997 305.512 97.6565 306.596 97.6728C309.027 97.6728 309.766 98.4414 309.653 100.777C309.631 101.207 309.525 101.403 309.038 101.403C308.28 101.38 307.517 101.393 306.759 101.422C305.71 101.444 304.673 101.635 303.689 101.986C303.141 102.173 302.655 102.496 302.279 102.923C301.903 103.349 301.652 103.864 301.552 104.415C301.471 104.86 301.442 105.311 301.465 105.762C301.478 108.007 302.551 109.267 304.856 109.641C306.932 109.979 309.059 109.889 311.096 109.378C311.965 109.169 311.984 109.127 311.991 108.229C312.01 106.901 311.993 105.58 311.993 104.26ZM308.999 107.855C307.885 107.93 306.77 108.02 305.66 107.855C304.452 107.686 303.885 107.082 303.822 105.919C303.807 105.57 303.817 105.222 303.852 104.875C303.868 104.524 303.995 104.187 304.218 103.91C304.44 103.632 304.747 103.428 305.095 103.325C306.455 102.867 307.874 103.039 309.273 103.034C309.61 103.034 309.642 103.304 309.642 103.563C309.642 104.185 309.642 104.812 309.642 105.443C309.642 105.996 309.616 106.552 309.642 107.114C309.679 107.583 309.497 107.822 308.999 107.855Z" fill="white"/>
<path d="M253.202 104.079C253.202 102.725 253.202 101.372 253.202 100.018C253.202 99.914 253.191 99.8095 253.182 99.7051C252.965 97.3408 251.644 96.0291 249.226 95.7701C247.609 95.6321 245.98 95.7073 244.384 95.9936C243.584 96.1189 243.434 96.3612 243.543 97.2468C243.61 97.7877 243.745 97.8942 244.566 97.8107C245.644 97.7122 246.727 97.669 247.81 97.6812C250.278 97.6812 250.975 98.3997 250.886 100.747C250.866 101.238 250.727 101.412 250.202 101.407C249.011 101.395 247.812 101.37 246.637 101.56C243.608 102.044 242.587 103.231 242.739 106.155C242.835 107.997 243.78 109.152 245.65 109.551C247.912 110.031 250.167 109.879 252.416 109.384C253.037 109.248 253.224 108.935 253.213 108.361C253.185 106.926 253.202 105.503 253.202 104.079ZM250.295 107.838C249.144 107.932 247.988 108.018 246.839 107.838C245.689 107.659 245.318 107.228 245.101 106.142C245.032 105.798 245.019 105.446 245.064 105.098C245.227 103.901 245.626 103.444 246.845 103.176C248.02 102.915 249.22 103.028 250.41 103.02C250.73 103.02 250.858 103.185 250.858 103.475C250.858 104.102 250.858 104.728 250.858 105.355C250.858 105.946 250.838 106.537 250.858 107.126C250.895 107.563 250.745 107.811 250.295 107.849V107.838Z" fill="white"/>
<path d="M93.6708 104.169C93.6708 102.78 93.7077 101.389 93.6708 100.002C93.5925 97.6228 92.289 96.1377 89.9601 95.8391C88.196 95.6135 86.4254 95.7597 84.6743 96.0479C84.079 96.144 83.9009 96.5367 83.9791 97.2468C84.0421 97.8254 84.4136 97.8734 84.9002 97.84C86.0886 97.7836 87.29 97.7314 88.4719 97.7293C90.7074 97.7293 91.3548 98.3768 91.3483 100.553V100.658C91.3353 101.432 91.3353 101.441 90.5075 101.447C89.3148 101.447 88.1178 101.412 86.9403 101.614C83.9443 102.124 83.0883 103.494 83.21 105.827C83.21 105.998 83.21 106.174 83.2274 106.347C83.3556 108.054 84.242 109.133 85.9756 109.532C88.3046 110.071 90.6336 109.908 92.9516 109.394C93.5187 109.269 93.7012 108.977 93.6925 108.44C93.6707 107.024 93.6708 105.599 93.6708 104.169ZM91.3331 105.401C91.3331 106.028 91.3331 106.654 91.3331 107.27C91.3331 107.644 91.1941 107.843 90.7813 107.878C89.5994 107.983 88.4219 108.116 87.2357 107.878C86.1212 107.655 85.6215 107.145 85.5324 106.051C85.5324 105.982 85.5324 105.913 85.5324 105.842C85.4629 104.018 86.0886 103.291 87.9809 103.126C88.9086 103.045 89.8514 103.095 90.7856 103.064C91.2201 103.049 91.3461 103.256 91.3396 103.634C91.3309 104.233 91.3396 104.822 91.3396 105.409L91.3331 105.401Z" fill="white"/>
<path d="M47.1524 102.732C47.1524 102.366 47.1676 101.913 47.1524 101.462C47.1319 100.592 46.9555 99.7321 46.631 98.9199C45.7229 96.7498 43.7611 95.6679 40.952 95.7869C38.0647 95.8997 36.1551 97.5289 35.6967 100.269C35.4468 101.754 35.5446 103.25 35.6032 104.741C35.6343 105.297 35.7492 105.846 35.9443 106.37C36.6395 108.311 38.0256 109.503 40.1786 109.785C40.8266 109.871 41.4826 109.885 42.1339 109.827C44.6953 109.601 46.479 108.06 46.9786 105.631C47.1508 104.674 47.2091 103.701 47.1524 102.732ZM44.6041 105.46C44.2413 107.087 43.0377 107.905 41.3061 107.899C39.5746 107.893 38.4819 107.041 38.0473 105.393C37.8301 104.543 37.8431 103.672 37.8301 102.805C37.8301 101.903 37.8301 100.998 38.0756 100.115C38.5101 98.5335 39.5964 97.7378 41.3105 97.7357C43.0246 97.7336 44.1848 98.5126 44.5693 100.085C44.9935 101.852 45.0054 103.688 44.6041 105.46Z" fill="white"/>
<path d="M26.2049 104.066H26.1875C26.1875 102.782 26.1875 101.497 26.1875 100.213C26.1823 99.9702 26.162 99.7282 26.1266 99.488C25.8855 97.5225 24.8731 96.355 22.8809 95.9372C20.9473 95.5404 18.9986 95.7681 17.0715 96.0751C16.561 96.1566 16.4198 96.6265 16.5371 97.3722C16.611 97.8651 16.9433 97.8567 17.3279 97.8421C18.5163 97.7982 19.7068 97.7377 20.8995 97.7335C23.1524 97.7335 23.7064 98.2327 23.8715 100.378C23.9541 101.449 23.9541 101.451 22.7853 101.453C22.2421 101.453 21.699 101.437 21.1581 101.453C20.0373 101.466 18.9268 101.66 17.8732 102.028C17.3251 102.216 16.8405 102.544 16.4713 102.977C16.102 103.41 15.862 103.93 15.7767 104.484C15.6734 105.035 15.6456 105.597 15.6941 106.155C15.8679 108.2 16.8 109.271 18.8986 109.647C21.0409 110.013 23.2396 109.937 25.3489 109.424C26.1375 109.242 26.1962 109.15 26.2049 108.34C26.2157 106.913 26.2049 105.491 26.2049 104.066ZM23.2806 107.891C22.0944 107.989 20.9126 108.129 19.7264 107.891C18.5945 107.657 18.1274 107.145 18.0883 106.032C18.0144 103.899 18.6401 103.233 20.8713 103.108C21.6621 103.066 22.4572 103.108 23.2611 103.072C23.7303 103.053 23.9128 103.241 23.8998 103.68C23.8824 104.269 23.8998 104.858 23.8998 105.447C23.8998 106.036 23.8998 106.627 23.8998 107.216C23.8976 107.634 23.7434 107.851 23.2806 107.891Z" fill="white"/>
</svg>
